<svg width="50" height="48" viewBox="0 0 50 48" fill="none" xmlns="http://www.w3.org/2000/svg">
<path d="M5.37524 8.79022H9.32788V38.47H5.37524V8.79022Z" fill="#F9FCFF"/>
<path d="M40.1172 8.67459H44.0698V38.3544H40.1172V8.67459Z" fill="#F9FCFF"/>
<path d="M46.4277 2.37578V7.57665C46.4277 8.24687 45.8844 8.79023 45.2142 8.79023H4.23115C3.56094 8.79023 3.01758 8.24687 3.01758 7.57665V2.37578C3.01758 1.70556 3.56094 1.1622 4.23115 1.1622H45.2142C45.8844 1.1622 46.4277 1.70556 46.4277 2.37578Z" fill="#C7D5E1"/>
<path d="M16.3766 13.6021L18.0026 15.228C18.236 15.4614 18.236 15.8398 18.0026 16.0732L15.3173 18.7585C15.0839 18.9919 14.7054 18.9919 14.4721 18.7585L12.8462 17.1325C11.8713 16.1576 11.8713 14.577 12.8462 13.6021C13.8211 12.6272 15.4017 12.6272 16.3766 13.6021Z" fill="#EC6325"/>
<path d="M32.574 13.6021L30.948 15.228C30.7146 15.4614 30.7146 15.8398 30.948 16.0732L33.6333 18.7585C33.8667 18.9919 34.2452 18.9919 34.4785 18.7585L36.1044 17.1325C37.0793 16.1576 37.0793 14.577 36.1044 13.6021C35.1295 12.6272 33.5489 12.6272 32.574 13.6021Z" fill="#EC6325"/>
<path d="M9.328 36.5283H40.1173V46.8377H9.328V36.5283Z" fill="#F9FCFF"/>
<path d="M9.328 36.5283H40.1173V39.7645H9.328V36.5283Z" fill="#C7D5E1"/>
<path d="M10.7149 31.0981V45.7762C10.7149 46.3623 10.2397 46.8375 9.65357 46.8375H2.20659C1.62046 46.8375 1.14526 46.3623 1.14526 45.7762V31.0981C1.14526 30.512 1.62046 30.0368 2.20659 30.0368H9.65347C10.2397 30.0368 10.7149 30.512 10.7149 31.0981Z" fill="#EC6325"/>
<path d="M48.8547 31.0981V45.7762C48.8547 46.3623 48.3795 46.8375 47.7934 46.8375H40.3465C39.7604 46.8375 39.2852 46.3623 39.2852 45.7762V31.0981C39.2852 30.512 39.7604 30.0368 40.3465 30.0368H47.7934C48.3795 30.0368 48.8547 30.512 48.8547 31.0981Z" fill="#EC6325"/>
<path d="M5.92998 37.8478C7.32784 37.8478 8.46103 36.7146 8.46103 35.3167C8.46103 33.9188 7.32784 32.7856 5.92998 32.7856C4.53212 32.7856 3.39893 33.9188 3.39893 35.3167C3.39893 36.7146 4.53212 37.8478 5.92998 37.8478Z" fill="#F9FCFF"/>
<path d="M5.92998 44.0889C6.94491 44.0889 7.76768 43.2661 7.76768 42.2512C7.76768 41.2362 6.94491 40.4135 5.92998 40.4135C4.91505 40.4135 4.09229 41.2362 4.09229 42.2512C4.09229 43.2661 4.91505 44.0889 5.92998 44.0889Z" fill="#F9FCFF"/>
<path d="M44.07 37.8478C45.4679 37.8478 46.601 36.7146 46.601 35.3167C46.601 33.9188 45.4679 32.7856 44.07 32.7856C42.6721 32.7856 41.5389 33.9188 41.5389 35.3167C41.5389 36.7146 42.6721 37.8478 44.07 37.8478Z" fill="#F9FCFF"/>
<path d="M44.07 44.0889C45.0849 44.0889 45.9077 43.2661 45.9077 42.2512C45.9077 41.2362 45.0849 40.4135 44.07 40.4135C43.0551 40.4135 42.2323 41.2362 42.2323 42.2512C42.2323 43.2661 43.0551 44.0889 44.07 44.0889Z" fill="#F9FCFF"/>
<path d="M29.9235 44.2372V46.8377H19.5217V44.2372C19.5217 43.7585 19.9098 43.3704 20.3885 43.3704H29.0567C29.5354 43.3704 29.9235 43.7585 29.9235 44.2372Z" fill="#EC6325"/>
<path d="M44.0688 28.361C44.3777 28.361 44.6279 28.1106 44.6279 27.8019V9.34921H45.2141C46.1846 9.34921 46.9868 8.55283 46.9868 7.57656V2.37578C46.9868 1.40126 46.1865 0.603119 45.2141 0.603119H4.23103C3.26169 0.603119 2.45837 1.39824 2.45837 2.37578V7.57656C2.45837 8.55107 3.25867 9.34921 4.23103 9.34921H4.81648V27.8019C4.81648 28.1106 5.06677 28.361 5.37556 28.361C5.68445 28.361 5.93464 28.1106 5.93464 27.8019V9.34921H8.76746V27.8019C8.76746 28.1106 9.01775 28.361 9.32654 28.361C9.63533 28.361 9.88562 28.1106 9.88562 27.8019V9.34921H11.1111L10.5168 11.1259C10.3768 11.5448 10.4826 12.0002 10.7924 12.3144L12.0956 13.637C11.2767 14.8267 11.3936 16.4707 12.4508 17.5278L14.0769 19.1542C14.3024 19.3795 14.5985 19.492 14.8946 19.492C15.1909 19.492 15.4872 19.3792 15.7125 19.1538L18.3978 16.4686C18.8488 16.0177 18.8488 15.2839 18.3978 14.8328L16.7718 13.2068C15.7053 12.14 14.0664 12.035 12.8862 12.8463L11.5886 11.5292C11.576 11.5165 11.5718 11.4972 11.5773 11.4801L12.2901 9.34921H36.6605L37.3731 11.4804C37.3788 11.4971 37.3744 11.5164 37.3617 11.5295L36.0643 12.8463C34.8864 12.0365 33.2469 12.138 32.1788 13.2067L30.553 14.8323C30.1004 15.285 30.1009 16.0169 30.5528 16.4685L33.2382 19.154C33.6889 19.6044 34.4229 19.6045 34.8738 19.1536L36.4998 17.5276C37.5701 16.4576 37.6706 14.815 36.8557 13.636L38.1579 12.3145C38.4682 12.0001 38.5737 11.5443 38.4335 11.1254L37.8394 9.34911H39.559V27.8091C39.559 28.1178 39.8093 28.3682 40.118 28.3682C40.4268 28.3682 40.6771 28.1178 40.6771 27.8091V9.34911H43.5097V27.8019C43.5097 28.1105 43.76 28.361 44.0688 28.361ZM15.9814 13.9975L17.6074 15.6234C17.6223 15.6384 17.6223 15.6631 17.6074 15.678L14.9219 18.3632C14.907 18.3785 14.8823 18.3777 14.8674 18.3632L13.2414 16.7372C12.4861 15.9819 12.4861 14.7527 13.2414 13.9975C13.9975 13.2417 15.2224 13.2389 15.9814 13.9975ZM35.7092 16.7372L34.0832 18.3632C34.0682 18.3785 34.0435 18.3777 34.0286 18.3632L31.3432 15.6776C31.3305 15.6649 31.3305 15.6365 31.3434 15.6234L32.9694 13.9975H32.9696C33.726 13.2403 34.9516 13.2402 35.7093 13.9975C36.4662 14.7541 36.4665 15.9803 35.7092 16.7372ZM39.2276 8.23105L42.0856 5.7204L44.9434 8.23105C44.1257 8.04755 41.3958 8.1787 39.2276 8.23105ZM4.50173 8.23105L7.35955 5.7204L10.2176 8.23105C1.99597 8.22851 12.6079 8.23076 4.50173 8.23105ZM3.57664 2.39716L6.51248 4.97617L3.57664 7.55517V2.39716ZM45.8686 7.55517L42.9328 4.97617L45.8686 2.39716V7.55517ZM42.0856 4.23203L39.2276 1.72128H44.9434L42.0856 4.23203ZM41.2385 4.97617L37.745 8.04511L34.2519 4.97617L37.745 1.90722L41.2385 4.97617ZM33.4048 4.23183L30.5473 1.72128H36.2623L33.4048 4.23183ZM32.5575 4.97617L29.0636 8.04579L25.5698 4.97617L29.0636 1.90654L32.5575 4.97617ZM24.7227 4.23183L21.8653 1.72128H27.5802L24.7227 4.23183ZM23.8755 4.97617L20.3816 8.04579L16.8878 4.97617L20.3816 1.90654L23.8755 4.97617ZM16.0406 4.23183L13.1831 1.72128H18.8981L16.0406 4.23183ZM15.1934 4.97617L11.7003 8.04521L8.20681 4.97617L11.7003 1.90712L15.1934 4.97617ZM7.35964 4.23203L4.50173 1.72128H10.2176L7.35964 4.23203ZM16.0406 5.7205L18.8981 8.23105H13.1831L16.0406 5.7205ZM24.7227 5.7205L27.5802 8.23105H21.8653L24.7227 5.7205ZM33.4048 5.7205L36.2622 8.23105H30.5472L33.4048 5.7205Z" fill="#0D263C"/>
<path d="M5.92998 38.4069C7.63398 38.4069 9.02031 37.0205 9.02031 35.3166C9.02031 33.6127 7.63408 32.2267 5.92998 32.2267C4.22607 32.2267 2.83984 33.6128 2.83984 35.3166C2.83984 37.0204 4.22607 38.4069 5.92998 38.4069ZM5.92998 33.3448C7.01738 33.3448 7.90215 34.2293 7.90215 35.3166C7.90215 36.4038 7.01748 37.2888 5.92998 37.2888C4.84277 37.2888 3.95801 36.4039 3.95801 35.3166C3.95801 34.2294 4.84268 33.3448 5.92998 33.3448Z" fill="#0D263C"/>
<path d="M5.93 39.8545C4.60852 39.8545 3.53333 40.9297 3.53333 42.2511C3.53333 43.5728 4.60852 44.6479 5.93 44.6479C7.25149 44.6479 8.32668 43.5728 8.32668 42.2511C8.32668 40.9298 7.25149 39.8545 5.93 39.8545ZM5.93 43.5298C5.22493 43.5298 4.65149 42.9562 4.65149 42.2511C4.65149 41.546 5.22493 40.9728 5.93 40.9728C6.63508 40.9728 7.20852 41.5461 7.20852 42.2511C7.20852 42.9561 6.63499 43.5298 5.93 43.5298Z" fill="#0D263C"/>
<path d="M47.7934 29.4777H40.3464C39.4528 29.4777 38.7259 30.2046 38.7259 31.0982V35.9681H25.9881L23.9872 32.5944V23.8247L25.0189 23.1799C25.2808 23.0161 25.3603 22.671 25.1967 22.4093C25.033 22.1475 24.688 22.0679 24.4263 22.2312L21.8375 23.8492C21.5755 24.013 21.496 24.3581 21.6596 24.6198C21.8248 24.8838 22.1706 24.9598 22.43 24.7978L22.869 24.5235V32.576L20.5646 35.9681H11.2739V31.0982C11.2739 30.2046 10.547 29.4777 9.65337 29.4777H2.20649C1.31304 29.4777 0.586182 30.2046 0.586182 31.0982V45.7763C0.586182 46.67 1.31304 47.3969 2.20649 47.3969C19.9627 47.3968 2.61001 47.395 47.7934 47.3969C48.6871 47.3969 49.4139 46.67 49.4139 45.7763V31.0982C49.4139 30.2047 48.6871 29.4777 47.7934 29.4777ZM20.0808 46.2779V44.237C20.0808 44.0674 20.219 43.9294 20.3885 43.9294H29.0567C29.2263 43.9294 29.3643 44.0674 29.3643 44.237V46.2779H20.0808ZM29.0568 42.8112H20.3886C19.6024 42.8112 18.9626 43.4508 18.9626 44.237V46.2779H11.1865C11.2386 46.119 11.274 45.9525 11.274 45.7763V40.3219H38.7259V45.7763C38.7259 45.9525 38.7613 46.119 38.8134 46.2779H30.4825V44.237C30.4826 43.4508 29.843 42.8112 29.0568 42.8112ZM23.3961 33.79L24.688 35.9681H21.9165L23.3961 33.79ZM38.7259 37.0863V39.2037H11.274V37.0863H38.7259ZM1.70435 45.7763V31.0982C1.70435 30.8213 1.92964 30.5959 2.20649 30.5959H9.65347C9.93042 30.5959 10.1558 30.8212 10.1558 31.0982V45.7763C10.1558 46.052 9.93237 46.2759 9.65708 46.2779C8.13423 46.2781 2.49985 46.2786 2.20649 46.2786C1.92974 46.2787 1.70435 46.0533 1.70435 45.7763ZM48.2957 45.7763C48.2957 46.0533 48.0705 46.2787 47.7934 46.2787H40.3464C40.0695 46.2787 39.8441 46.0534 39.8441 45.7763C39.8441 45.5849 39.8441 31.2602 39.8441 31.0982C39.8441 30.8213 40.0694 30.5959 40.3464 30.5959H47.7934C48.0704 30.5959 48.2957 30.8212 48.2957 31.0982V45.7763Z" fill="#0D263C"/>
<path d="M44.0699 32.2267C42.366 32.2267 40.9797 33.6128 40.9797 35.3166C40.9797 37.0205 42.366 38.4069 44.0699 38.4069C45.7738 38.4069 47.16 37.0205 47.16 35.3166C47.16 33.6127 45.7738 32.2267 44.0699 32.2267ZM44.0699 37.2888C42.9827 37.2888 42.0979 36.4039 42.0979 35.3166C42.0979 34.2294 42.9826 33.3448 44.0699 33.3448C45.1571 33.3448 46.0418 34.2293 46.0418 35.3166C46.0418 36.4038 45.1572 37.2888 44.0699 37.2888Z" fill="#0D263C"/>
<path d="M44.0699 39.8545C42.7484 39.8545 41.6732 40.9297 41.6732 42.2511C41.6732 43.5728 42.7484 44.6479 44.0699 44.6479C45.3914 44.6479 46.4666 43.5728 46.4666 42.2511C46.4667 40.9298 45.3914 39.8545 44.0699 39.8545ZM44.0699 43.5298C43.3648 43.5298 42.7914 42.9562 42.7914 42.2511C42.7914 41.546 43.3648 40.9728 44.0699 40.9728C44.775 40.9728 45.3484 41.5461 45.3484 42.2511C45.3484 42.9561 44.775 43.5298 44.0699 43.5298Z" fill="#0D263C"/>
</svg>
