<svg width="50" height="50" viewBox="0 0 50 50" fill="none" xmlns="http://www.w3.org/2000/svg">
<path fill-rule="evenodd" clip-rule="evenodd" d="M5.0757 2.27272C3.67591 2.27272 2.5757 3.37294 2.5757 4.77272V20.9848C2.5757 22.3846 3.67591 23.4848 5.0757 23.4848H44.9242C46.324 23.4848 47.4242 22.3846 47.4242 20.9848V4.77272C47.4242 3.37294 46.324 2.27272 44.9242 2.27272H5.0757ZM1.06055 4.77272C1.06055 2.53614 2.83912 0.757568 5.0757 0.757568H44.9242C47.1608 0.757568 48.9393 2.53614 48.9393 4.77272V20.9848C48.9393 23.2214 47.1608 25 44.9242 25H5.0757C2.83912 25 1.06055 23.2214 1.06055 20.9848V4.77272Z" fill="#0D263C"/>
<path d="M12.7272 29.5454C14.9447 29.5454 16.7423 27.7478 16.7423 25.5303C16.7423 23.3128 14.9447 21.5151 12.7272 21.5151C10.5097 21.5151 8.71204 23.3128 8.71204 25.5303C8.71204 27.7478 10.5097 29.5454 12.7272 29.5454Z" fill="#EC6325"/>
<path fill-rule="evenodd" clip-rule="evenodd" d="M12.7272 22.2727C10.9281 22.2727 9.46962 23.7312 9.46962 25.5303C9.46962 27.3294 10.9281 28.7879 12.7272 28.7879C14.5263 28.7879 15.9848 27.3294 15.9848 25.5303C15.9848 23.7312 14.5263 22.2727 12.7272 22.2727ZM7.95447 25.5303C7.95447 22.8944 10.0913 20.7576 12.7272 20.7576C15.3631 20.7576 17.4999 22.8944 17.4999 25.5303C17.4999 28.1662 15.3631 30.303 12.7272 30.303C10.0913 30.303 7.95447 28.1662 7.95447 25.5303Z" fill="#0D263C"/>
<path fill-rule="evenodd" clip-rule="evenodd" d="M5.26999 34.7491C5.90429 32.9377 7.54948 31.7424 9.46965 31.7424H15.6818C16.6188 31.7424 17.6091 32.1084 18.3333 32.6515L18.336 32.6536L23.4362 36.5152H27.0454C28.5646 36.5152 29.6212 37.7291 29.6212 39.1667C29.6212 40.6113 28.406 41.6667 27.0454 41.6667H23.1818C22.4083 41.6667 21.5632 41.4982 20.8674 41.0093L17.5853 38.9511L17.6515 48.4796C17.6529 48.6826 17.5728 48.8776 17.4291 49.021C17.2854 49.1644 17.0902 49.2442 16.8872 49.2424L8.25089 49.1666C7.8351 49.163 7.49995 48.8249 7.49995 48.4091V42.6609L6.02168 47.0578C6.02159 47.058 6.02149 47.0583 6.02139 47.0586C5.57831 48.3863 4.1303 49.0473 2.81965 48.5044C1.70182 48.0541 1.03867 46.7327 1.48352 45.5027L5.26976 34.7497C5.26984 34.7495 5.26991 34.7493 5.26999 34.7491ZM9.46965 33.2576C8.20824 33.2576 7.12632 34.0318 6.69985 35.2503L2.9115 46.0092C2.91064 46.0116 2.90977 46.0141 2.90889 46.0165C2.75121 46.4501 2.99428 46.9424 3.38737 47.0996C3.38877 47.1002 3.39017 47.1008 3.39156 47.1013C3.39351 47.1021 3.39545 47.1029 3.39739 47.1037C3.90331 47.3145 4.42153 47.0669 4.58429 46.5786L4.58491 46.5768L7.53945 37.7889C7.65774 37.4371 8.01353 37.2227 8.37985 37.2827C8.74616 37.3426 9.01511 37.6591 9.01511 38.0303V47.6581L16.131 47.7206L16.0606 37.581C16.0587 37.3045 16.2076 37.0489 16.4491 36.9142C16.6906 36.7794 16.9863 36.787 17.2206 36.934L21.6903 39.737C21.7032 39.7451 21.7158 39.7535 21.7282 39.7623C22.0892 40.0202 22.599 40.1515 23.1818 40.1515H27.0454C27.6545 40.1515 28.106 39.6917 28.106 39.1667C28.106 38.4831 27.6474 38.0303 27.0454 38.0303H23.1818C23.0167 38.0303 22.8561 37.9764 22.7245 37.8767L17.4242 33.8636C17.4238 33.8633 17.4233 33.863 17.4229 33.8626C16.935 33.4973 16.2594 33.2576 15.6818 33.2576H9.46965Z" fill="#0D263C"/>
<path d="M27.1969 37.1212L29.8484 29.4697L27.1969 37.1212Z" fill="#EC6325"/>
<path fill-rule="evenodd" clip-rule="evenodd" d="M30.0964 28.7539C30.4918 28.8909 30.7012 29.3224 30.5642 29.7178L27.9127 37.3693C27.7757 37.7646 27.3441 37.974 26.9488 37.837C26.5535 37.7 26.3441 37.2685 26.4811 36.8732L29.1326 29.2216C29.2696 28.8263 29.7011 28.6169 30.0964 28.7539Z" fill="#0D263C"/>
<path d="M24.6969 44.0909L25.8333 40.9091L24.6969 44.0909Z" fill="#EC6325"/>
<path fill-rule="evenodd" clip-rule="evenodd" d="M26.088 40.1956C26.4821 40.3364 26.6874 40.7699 26.5467 41.1639L25.4103 44.3457C25.2696 44.7397 24.8361 44.9451 24.4421 44.8043C24.048 44.6636 23.8427 44.2301 23.9834 43.8361L25.1198 40.6543C25.2605 40.2603 25.694 40.0549 26.088 40.1956Z" fill="#0D263C"/>
<path fill-rule="evenodd" clip-rule="evenodd" d="M26.4394 6.66667C25.7971 6.66667 25.303 7.16083 25.303 7.80304C25.303 8.44524 25.7971 8.9394 26.4394 8.9394C26.8578 8.9394 27.1969 9.27858 27.1969 9.69697C27.1969 10.1154 26.8578 10.4546 26.4394 10.4546C24.9604 10.4546 23.7878 9.28204 23.7878 7.80304C23.7878 6.32403 24.9604 5.15152 26.4394 5.15152C27.9184 5.15152 29.0909 6.32403 29.0909 7.80304C29.0909 8.22143 28.7517 8.56061 28.3333 8.56061C27.9149 8.56061 27.5757 8.22143 27.5757 7.80304C27.5757 7.16083 27.0816 6.66667 26.4394 6.66667Z" fill="#0D263C"/>
<path fill-rule="evenodd" clip-rule="evenodd" d="M25.6818 9.69697C25.6818 9.27857 26.021 8.93939 26.4394 8.93939C27.9184 8.93939 29.0909 10.1119 29.0909 11.5909C29.0909 13.0699 27.9184 14.2424 26.4394 14.2424C24.9604 14.2424 23.7878 13.0699 23.7878 11.5909C23.7878 11.1725 24.127 10.8333 24.5454 10.8333C24.9638 10.8333 25.303 11.1725 25.303 11.5909C25.303 12.2331 25.7971 12.7273 26.4394 12.7273C27.0816 12.7273 27.5757 12.2331 27.5757 11.5909C27.5757 10.9487 27.0816 10.4545 26.4394 10.4545C26.021 10.4545 25.6818 10.1154 25.6818 9.69697Z" fill="#0D263C"/>
<path fill-rule="evenodd" clip-rule="evenodd" d="M26.4393 4.31818C26.8577 4.31818 27.1969 4.65735 27.1969 5.07575V5.83333C27.1969 6.25173 26.8577 6.5909 26.4393 6.5909C26.0209 6.5909 25.6818 6.25173 25.6818 5.83333V5.07575C25.6818 4.65735 26.0209 4.31818 26.4393 4.31818Z" fill="#0D263C"/>
<path fill-rule="evenodd" clip-rule="evenodd" d="M26.4393 12.803C26.8577 12.803 27.1969 13.1422 27.1969 13.5606V14.2424C27.1969 14.6608 26.8577 15 26.4393 15C26.0209 15 25.6818 14.6608 25.6818 14.2424V13.5606C25.6818 13.1422 26.0209 12.803 26.4393 12.803Z" fill="#0D263C"/>
<path d="M25 17.5757H29.9242V21.0606H25V17.5757Z" fill="#EC6325"/>
<path fill-rule="evenodd" clip-rule="evenodd" d="M24.2424 17.5758C24.2424 17.1574 24.5816 16.8182 25 16.8182H29.9243C30.3426 16.8182 30.6818 17.1574 30.6818 17.5758V21.0606C30.6818 21.479 30.3426 21.8182 29.9243 21.8182H25C24.5816 21.8182 24.2424 21.479 24.2424 21.0606V17.5758ZM25.7576 18.3333V20.303H29.1667V18.3333H25.7576Z" fill="#0D263C"/>
<path fill-rule="evenodd" clip-rule="evenodd" d="M29.1666 14.8485C29.1666 14.4301 29.5058 14.0909 29.9242 14.0909H34.8484C35.2668 14.0909 35.606 14.4301 35.606 14.8485V21.0606C35.606 21.479 35.2668 21.8182 34.8484 21.8182H29.9242C29.5058 21.8182 29.1666 21.479 29.1666 21.0606V14.8485ZM30.6818 15.6061V20.303H34.0909V15.6061H30.6818Z" fill="#0D263C"/>
<path d="M34.8484 11.2879H39.7726V21.0606H34.8484V11.2879Z" fill="#EC6325"/>
<path fill-rule="evenodd" clip-rule="evenodd" d="M34.0908 11.2879C34.0908 10.8695 34.43 10.5303 34.8484 10.5303H39.7726C40.191 10.5303 40.5302 10.8695 40.5302 11.2879V21.0606C40.5302 21.479 40.191 21.8182 39.7726 21.8182H34.8484C34.43 21.8182 34.0908 21.479 34.0908 21.0606V11.2879ZM35.606 12.0455V20.303H39.0151V12.0455H35.606Z" fill="#0D263C"/>
<path fill-rule="evenodd" clip-rule="evenodd" d="M39.0151 8.4091C39.0151 7.9907 39.3543 7.65152 39.7727 7.65152H44.697C45.1154 7.65152 45.4545 7.9907 45.4545 8.4091V21.1364C45.4545 21.5548 45.1154 21.8939 44.697 21.8939H39.7727C39.3543 21.8939 39.0151 21.5548 39.0151 21.1364V8.4091ZM40.5303 9.16667V20.3788H43.9394V9.16667H40.5303Z" fill="#0D263C"/>
<path d="M4.77271 4.69696H8.78786V8.71211H4.77271V4.69696Z" fill="#EC6325"/>
<path fill-rule="evenodd" clip-rule="evenodd" d="M4.01514 4.69697C4.01514 4.27857 4.35431 3.93939 4.77271 3.93939H8.78786C9.20626 3.93939 9.54544 4.27857 9.54544 4.69697V8.71212C9.54544 9.13052 9.20626 9.4697 8.78786 9.4697H4.77271C4.35431 9.4697 4.01514 9.13052 4.01514 8.71212V4.69697ZM5.53029 5.45454V7.95454H8.03029V5.45454H5.53029Z" fill="#0D263C"/>
<path fill-rule="evenodd" clip-rule="evenodd" d="M11.2878 5.00001C11.2878 4.58161 11.627 4.24243 12.0454 4.24243H20.3788C20.7971 4.24243 21.1363 4.58161 21.1363 5.00001C21.1363 5.4184 20.7971 5.75758 20.3788 5.75758H12.0454C11.627 5.75758 11.2878 5.4184 11.2878 5.00001Z" fill="#0D263C"/>
<path fill-rule="evenodd" clip-rule="evenodd" d="M11.2878 8.4091C11.2878 7.9907 11.627 7.65152 12.0454 7.65152H15.8333C16.2517 7.65152 16.5909 7.9907 16.5909 8.4091C16.5909 8.82749 16.2517 9.16667 15.8333 9.16667H12.0454C11.627 9.16667 11.2878 8.82749 11.2878 8.4091Z" fill="#0D263C"/>
<path fill-rule="evenodd" clip-rule="evenodd" d="M4.77271 10.9091C5.19111 10.9091 5.53029 11.2483 5.53029 11.6667V17.197H18.1818C18.6002 17.197 18.9394 17.5361 18.9394 17.9545C18.9394 18.3729 18.6002 18.7121 18.1818 18.7121H4.77271C4.35431 18.7121 4.01514 18.3729 4.01514 17.9545V11.6667C4.01514 11.2483 4.35431 10.9091 4.77271 10.9091Z" fill="#0D263C"/>
<path fill-rule="evenodd" clip-rule="evenodd" d="M17.581 11.2825C17.8769 11.5783 17.8769 12.058 17.581 12.3539L16.0659 13.869C15.7763 14.1586 15.3091 14.1656 15.011 13.885L14.2583 13.1766L11.7477 15.6872C11.6056 15.8293 11.4129 15.9091 11.212 15.9091C11.0111 15.9091 10.8184 15.8293 10.6763 15.6872L9.22722 14.2381L8.39884 15.0205C8.09466 15.3077 7.61519 15.294 7.3279 14.9899C7.04062 14.6857 7.05432 14.2062 7.3585 13.9189L8.72214 12.6311C9.02019 12.3496 9.4881 12.3562 9.77799 12.6461L11.212 14.0801L13.7066 11.5855C13.9962 11.296 14.4634 11.2889 14.7615 11.5695L15.5142 12.2779L16.5097 11.2825C16.8055 10.9866 17.2852 10.9866 17.581 11.2825Z" fill="#EC6325"/>
<path fill-rule="evenodd" clip-rule="evenodd" d="M33.0303 38.1818C32.3881 38.1818 31.8939 38.676 31.8939 39.3182V46.5909C31.8939 47.2331 32.3881 47.7273 33.0303 47.7273H45.6818C46.324 47.7273 46.8182 47.2331 46.8182 46.5909V39.3182C46.8182 38.676 46.324 38.1818 45.6818 38.1818H33.0303ZM30.3788 39.3182C30.3788 37.8392 31.5513 36.6667 33.0303 36.6667H45.6818C47.1608 36.6667 48.3333 37.8392 48.3333 39.3182V46.5909C48.3333 48.0699 47.1608 49.2424 45.6818 49.2424H33.0303C31.5513 49.2424 30.3788 48.0699 30.3788 46.5909V39.3182Z" fill="#0D263C"/>
<path fill-rule="evenodd" clip-rule="evenodd" d="M37.155 35.0338C37.1468 35.042 37.1212 35.0717 37.1212 35.1515V36.5909H41.5152V35.1515C41.5152 35.0717 41.4896 35.042 41.4814 35.0338C41.4731 35.0255 41.4435 35 41.3637 35H37.2727C37.1929 35 37.1633 35.0255 37.155 35.0338ZM35.6061 35.1515C35.6061 34.2028 36.324 33.4848 37.2727 33.4848H41.3637C42.3124 33.4848 43.0303 34.2028 43.0303 35.1515V37.3485C43.0303 37.7669 42.6911 38.106 42.2727 38.106H36.3637C35.9453 38.106 35.6061 37.7669 35.6061 37.3485V35.1515Z" fill="#0D263C"/>
<path fill-rule="evenodd" clip-rule="evenodd" d="M46.4802 36.7914C46.8715 36.9395 47.0687 37.3767 46.9206 37.7681C45.7531 40.8536 42.8277 43.0303 39.3181 43.0303C35.8964 43.0303 32.9666 40.9415 31.7939 37.9261C31.6423 37.5361 31.8354 37.0971 32.2254 36.9454C32.6153 36.7938 33.0544 36.987 33.206 37.3769C34.1546 39.816 36.5278 41.5151 39.3181 41.5151C42.1723 41.5151 44.5498 39.7524 45.5035 37.2319C45.6516 36.8405 46.0889 36.6434 46.4802 36.7914Z" fill="#0D263C"/>
<path d="M37.8788 40.6818H40.7576V43.7879H37.8788V40.6818Z" fill="#EC6325"/>
<path fill-rule="evenodd" clip-rule="evenodd" d="M37.1212 40.6818C37.1212 40.2634 37.4604 39.9242 37.8788 39.9242H40.7576C41.176 39.9242 41.5152 40.2634 41.5152 40.6818V43.7879C41.5152 44.2063 41.176 44.5454 40.7576 44.5454H37.8788C37.4604 44.5454 37.1212 44.2063 37.1212 43.7879V40.6818ZM38.6364 41.4394V43.0303H40V41.4394H38.6364Z" fill="#0D263C"/>
</svg>
