<svg width="50" height="50" viewBox="0 0 50 50" fill="none" xmlns="http://www.w3.org/2000/svg">
<g clip-path="url(#clip0_1348_810)">
<path d="M23.3839 8.87097C24.7201 8.87097 25.8032 7.78778 25.8032 6.45161C25.8032 5.11544 24.7201 4.03226 23.3839 4.03226C22.0477 4.03226 20.9645 5.11544 20.9645 6.45161C20.9645 7.78778 22.0477 8.87097 23.3839 8.87097Z" fill="#EC6325"/>
<path d="M26.5008 9.67742H25.8065H20.9678H20.2734C19.321 9.67742 18.5484 10.45 18.5484 11.4024V16.5323C18.5484 17.2 19.0903 17.7419 19.7581 17.7419C20.4258 17.7419 20.9678 17.2 20.9678 16.5323V17.7419L20.1661 26.5556C20.1629 26.5935 20.1613 26.6323 20.1613 26.671V26.9565C20.1613 27.6581 20.7299 28.2266 21.4315 28.2266C22.0839 28.2266 22.6299 27.7323 22.6952 27.0831L23.3871 20.1621L24.079 27.0831C24.1444 27.7323 24.6903 28.2266 25.3428 28.2266C26.0444 28.2266 26.6129 27.6581 26.6129 26.9565V26.671C26.6129 26.6323 26.6113 26.5944 26.6081 26.5556L25.8065 17.7419V16.5323C25.8065 17.2 26.3484 17.7419 27.0161 17.7419C27.6839 17.7419 28.2258 17.2 28.2258 16.5323V11.4024C28.2258 10.45 27.4532 9.67742 26.5008 9.67742Z" fill="#EC6325"/>
<path d="M46.7742 23.5645V0H0V32.2581H37.0968V50H46.7742V37.7548C47.0274 37.8452 47.2968 37.9032 47.5806 37.9032C48.9145 37.9032 50 36.8177 50 35.4839V27.8476C50 25.8169 48.6347 24.1016 46.7742 23.5645ZM1.6129 30.6452V1.6129H45.1613V14.9516C44.304 14.1823 43.1758 13.7097 41.9355 13.7097C39.2669 13.7097 37.0968 15.8798 37.0968 18.5484C37.0968 21.2169 39.2669 23.3871 41.9355 23.3871C43.175 23.3871 44.304 22.9145 45.1613 22.1444V23.3871H41.9355H38.7944C36.0782 22.0008 34.0976 19.1855 33.3637 18.0234C32.9331 17.3419 32.1927 16.9355 31.3823 16.9355C30.0863 16.9355 29.0323 17.9903 29.0323 19.2855C29.0323 20.054 29.2573 20.8048 29.6823 21.4573C30.8427 23.2387 33.3137 26.3871 37.0968 28.0153V30.6452H1.6129ZM45.1613 18.5484C45.1613 20.3274 43.7145 21.7742 41.9355 21.7742C40.1565 21.7742 38.7097 20.3274 38.7097 18.5484C38.7097 16.7694 40.1565 15.3226 41.9355 15.3226C43.7137 15.3226 45.1613 16.7694 45.1613 18.5484ZM48.3871 35.4839C48.3871 35.929 48.025 36.2903 47.5806 36.2903C47.1363 36.2903 46.7742 35.929 46.7742 35.4839V27.4194H45.1613V35.4839V48.3871H42.7419V37.0968H41.129V48.3871H38.7097V26.9161L38.1895 26.7185C34.4032 25.2782 31.9234 21.9435 31.0331 20.5774C30.7798 20.1871 30.6452 19.7403 30.6452 19.2855C30.6452 18.879 30.9758 18.5484 31.3823 18.5484C31.6363 18.5484 31.8669 18.6742 32 18.8847C33.0218 20.5016 35.1944 23.4371 38.254 24.9194L38.4202 25H41.9355H45.5395C47.1097 25 48.3871 26.2774 48.3871 27.8476V35.4839Z" fill="#0D263C"/>
<path d="M40.3193 4.03226H30.6419V5.64516H40.3193V4.03226Z" fill="#0D263C"/>
<path d="M43.5452 4.03226H41.9323V5.64516H43.5452V4.03226Z" fill="#0D263C"/>
<path d="M12.9 4.03226H3.2226V5.64516H12.9V4.03226Z" fill="#0D263C"/>
<path d="M16.1258 4.03226H14.5129V5.64516H16.1258V4.03226Z" fill="#0D263C"/>
<path d="M12.9 26.6129H3.2226V28.2258H12.9V26.6129Z" fill="#0D263C"/>
<path d="M16.1258 26.6129H14.5129V28.2258H16.1258V26.6129Z" fill="#0D263C"/>
<path d="M8.87096 8.06451H7.25806V10.2226L15.829 13.6516L16.4282 12.154L8.87096 9.13145V8.06451Z" fill="#0D263C"/>
<path d="M39.5161 10.2226V8.06451H37.9032V9.13145L30.3452 12.154L30.9443 13.6516L39.5161 10.2226Z" fill="#0D263C"/>
<path d="M7.25806 21.9806V24.1935H8.87096V23.1806L16.3605 20.9339L15.8976 19.3887L7.25806 21.9806Z" fill="#0D263C"/>
</g>
<defs>
<clipPath id="clip0_1348_810">
<rect width="50" height="50" fill="white"/>
</clipPath>
</defs>
</svg>
