<svg width="50" height="50" viewBox="0 0 50 50" fill="none" xmlns="http://www.w3.org/2000/svg">
<g clip-path="url(#clip0_208_800)">
<path d="M1.94572 15.772C10.2271 15.9064 16.2886 15.2225 22.8654 13.4096L24.5742 12.9386C24.5667 11.7752 25.3362 10.7024 26.51 10.3789L33.868 8.35059C35.0419 8.02706 36.2523 8.55401 36.8419 9.55694L46.6727 6.84698C47.6263 6.58419 48.2125 5.98419 48.2409 5.242C48.2593 4.76407 48.0327 4.15059 47.4362 3.57823L42.3081 4.95235C41.8919 5.06387 41.4736 5.11788 41.0629 5.11788C39.4229 5.11788 37.8958 4.25831 37.0356 2.76837L36.9913 2.6918L1.8839 15.402C1.79308 15.4348 1.74484 15.5175 1.76066 15.6126C1.77658 15.7079 1.84924 15.7704 1.94572 15.772ZM35.3264 4.43145L35.7801 4.2671C36.135 4.13839 36.5271 4.32208 36.6556 4.67706C36.7841 5.03204 36.6006 5.42403 36.2456 5.55255L35.7919 5.7169C35.7151 5.74473 35.6364 5.75792 35.5592 5.75792C35.2795 5.75792 35.0171 5.58497 34.9164 5.30684C34.7879 4.95186 34.9714 4.55997 35.3264 4.43145ZM32.6024 5.41758L33.0561 5.25333C33.4109 5.12501 33.803 5.3084 33.9316 5.66339C34.0601 6.01837 33.8765 6.41036 33.5215 6.53887L33.0678 6.70313C32.9909 6.73096 32.9124 6.74415 32.8352 6.74415C32.5555 6.74415 32.2931 6.5712 32.1923 6.29307C32.0638 5.93809 32.2474 5.5461 32.6024 5.41758ZM29.8783 6.40381L30.332 6.23956C30.6869 6.11114 31.079 6.29464 31.2075 6.64962C31.3361 7.0046 31.1525 7.39659 30.7975 7.5251L30.3438 7.68936C30.2669 7.71719 30.1884 7.73038 30.1112 7.73038C29.8315 7.73038 29.5691 7.55743 29.4683 7.2793C29.3398 6.92432 29.5234 6.53233 29.8783 6.40381ZM27.1542 7.39014L27.6079 7.22579C27.9629 7.09727 28.3549 7.28077 28.4834 7.63575C28.6119 7.99073 28.4284 8.38272 28.0735 8.51124L27.6197 8.67559C27.5429 8.70342 27.4643 8.71661 27.387 8.71661C27.1073 8.71661 26.8449 8.54366 26.7443 8.26553C26.6157 7.91055 26.7992 7.51866 27.1542 7.39014ZM24.4302 8.37637L24.8839 8.21202C25.2389 8.08331 25.6308 8.267 25.7594 8.62198C25.888 8.97696 25.7044 9.36895 25.3494 9.49747L24.8957 9.66182C24.8189 9.68965 24.7402 9.70284 24.663 9.70284C24.3833 9.70284 24.1209 9.52989 24.0202 9.25176C23.8917 8.89678 24.0752 8.50489 24.4302 8.37637ZM21.7062 9.36251L22.1599 9.19825C22.5149 9.06973 22.9068 9.25333 23.0354 9.60831C23.1639 9.96329 22.9803 10.3553 22.6253 10.4838L22.1716 10.6481C22.0947 10.6759 22.0162 10.6891 21.939 10.6891C21.6593 10.6891 21.3969 10.5161 21.2961 10.238C21.1676 9.88301 21.3512 9.49102 21.7062 9.36251ZM18.9821 10.3487L19.4359 10.1845C19.7908 10.0561 20.1828 10.2396 20.3113 10.5945C20.4399 10.9495 20.2563 11.3415 19.9013 11.47L19.4476 11.6343C19.3707 11.6621 19.2922 11.6753 19.215 11.6753C18.9353 11.6753 18.6729 11.5023 18.5721 11.2242C18.4436 10.8692 18.6272 10.4773 18.9821 10.3487ZM16.258 11.3351L16.7117 11.1707C17.0665 11.0421 17.4586 11.2257 17.5872 11.5807C17.7157 11.9357 17.5322 12.3276 17.1773 12.4562L16.7236 12.6205C16.6467 12.6483 16.5681 12.6615 16.4908 12.6615C16.2111 12.6615 15.9487 12.4886 15.8481 12.2105C15.7195 11.8555 15.903 11.4635 16.258 11.335V11.3351ZM13.534 12.3212L13.9877 12.1569C14.3426 12.0286 14.7347 12.212 14.8632 12.567C14.9917 12.922 14.8081 13.314 14.4531 13.4425L13.9994 13.6067C13.9226 13.6346 13.8441 13.6478 13.7668 13.6478C13.4871 13.6478 13.2247 13.4748 13.1239 13.1967C12.9954 12.8417 13.179 12.4497 13.534 12.3212ZM10.81 13.3074L11.2637 13.1432C11.6186 13.0148 12.0106 13.1982 12.1392 13.5532C12.2677 13.9082 12.0841 14.3002 11.7291 14.4287L11.2754 14.593C11.1986 14.6208 11.12 14.634 11.0428 14.634C10.7631 14.634 10.5007 14.461 10.3999 14.1829C10.2714 13.8279 10.455 13.4359 10.81 13.3074Z" fill="#EC6325"/>
<path d="M44.1934 26.5168H33.7859C32.8012 26.5168 32 27.318 32 28.3026V44.1198C32 45.1046 32.8012 45.9057 33.7859 45.9057H44.1934C45.1781 45.9057 45.9793 45.1046 45.9793 44.1198V28.3026C45.9793 27.318 45.1781 26.5168 44.1934 26.5168ZM44.164 44.7741H33.8153C33.4378 44.7741 33.1317 44.4681 33.1317 44.0905C33.1317 43.713 33.4378 43.4069 33.8153 43.4069H44.164C44.5415 43.4069 44.8476 43.713 44.8476 44.0905C44.8476 44.4681 44.5415 44.7741 44.164 44.7741ZM44.8476 41.2512C44.8476 41.6287 44.5415 41.9347 44.164 41.9347C43.7864 41.9347 43.4804 41.6287 43.4804 41.2512V33.5357C43.4804 32.94 42.9958 32.4554 42.4001 32.4554H35.5793C34.9836 32.4554 34.499 32.94 34.499 33.5357V41.2512C34.499 41.6287 34.193 41.9347 33.8154 41.9347C33.4379 41.9347 33.1318 41.6287 33.1318 41.2512V33.5357C33.1318 32.1861 34.2298 31.0882 35.5793 31.0882H42.4001C43.7496 31.0882 44.8476 32.1861 44.8476 33.5357V41.2512Z" fill="#EC6325"/>
<path d="M27.2116 15.5578C27.4429 15.5578 27.6781 15.5272 27.9115 15.4628L35.2695 13.4345C36.4431 13.1109 37.2126 12.0383 37.2052 10.875L47.0361 8.16505C48.5703 7.7421 49.5555 6.6422 49.6072 5.29435C49.6584 3.95636 48.7474 2.17902 46.0366 1.20304C43.0169 0.116124 40.0821 0.118761 37.0642 1.21124L15.3074 9.0881L9.27317 4.96134C9.1426 4.87208 8.98489 4.83097 8.82776 4.84454L4.08264 5.25909C3.83274 5.28097 3.61487 5.4379 3.51506 5.66798C3.41526 5.89806 3.44944 6.16437 3.60413 6.36183L7.85549 11.786L1.41858 14.1164C0.711351 14.3724 0.288207 15.0965 0.41223 15.8381C0.536156 16.5797 1.1717 17.1268 1.92346 17.139C2.60452 17.1501 3.27014 17.1557 3.92327 17.1557C11.3461 17.1557 17.0603 16.4279 23.2288 14.7276L24.9381 14.2564C25.4104 15.0596 26.2805 15.5578 27.2116 15.5578ZM34.9062 12.1164L27.5483 14.1447C26.8733 14.3306 26.1729 13.933 25.9869 13.2582C25.8009 12.5833 26.1986 11.8829 26.8735 11.6969L34.2314 9.66857C34.3438 9.63761 34.457 9.62277 34.5684 9.62277C35.1254 9.62277 35.6377 9.99269 35.7927 10.5551C35.9787 11.23 35.5811 11.9304 34.9062 12.1164ZM45.5737 2.48946C45.6648 2.52228 45.7523 2.55636 45.838 2.59112L41.9542 3.63185C40.5413 4.01036 39.1022 3.45226 38.3151 2.23976C40.7465 1.52648 43.1291 1.60948 45.5737 2.48946ZM5.45832 6.51134L8.70315 6.22784L13.7239 9.66144L9.20862 11.2961L5.45832 6.51134ZM22.8655 13.4096C16.2885 15.2225 10.2271 15.9064 1.94573 15.772C1.84924 15.7704 1.77668 15.7079 1.76067 15.6126C1.74475 15.5175 1.79309 15.4348 1.88391 15.402L36.9912 2.69171L37.0355 2.76827C37.8957 4.25821 39.4227 5.11778 41.0628 5.11778C41.4737 5.11778 41.8918 5.06378 42.308 4.95226L47.4362 3.57814C48.0327 4.1505 48.2592 4.76398 48.2408 5.24191C48.2124 5.984 47.6262 6.584 46.6726 6.84689L36.8418 9.55685C36.2523 8.55402 35.0418 8.02697 33.8679 8.3505L26.5099 10.3788C25.3362 10.7024 24.5666 11.7752 24.5741 12.9385L22.8654 13.4095L22.8655 13.4096ZM14.8634 12.567C14.9919 12.922 14.8083 13.314 14.4533 13.4425L13.9996 13.6067C13.9228 13.6346 13.8443 13.6478 13.767 13.6478C13.4873 13.6478 13.2249 13.4748 13.1241 13.1967C12.9956 12.8417 13.1792 12.4497 13.5342 12.3212L13.9879 12.1569C14.3428 12.0286 14.7349 12.212 14.8634 12.567ZM12.1394 13.5532C12.2679 13.9082 12.0843 14.3002 11.7293 14.4287L11.2756 14.593C11.1988 14.6208 11.1202 14.634 11.043 14.634C10.7633 14.634 10.5009 14.461 10.4001 14.1829C10.2716 13.8279 10.4552 13.4359 10.8102 13.3074L11.2639 13.1432C11.6188 13.0148 12.0108 13.1983 12.1394 13.5532ZM32.1923 6.29308C32.0638 5.9381 32.2474 5.54611 32.6024 5.41759L33.0561 5.25333C33.4109 5.12501 33.8031 5.30841 33.9316 5.66339C34.0601 6.01837 33.8765 6.41036 33.5215 6.53888L33.0678 6.70314C32.9909 6.73097 32.9124 6.74415 32.8352 6.74415C32.5555 6.74415 32.2931 6.5712 32.1923 6.29308ZM34.9164 5.30694C34.7879 4.95196 34.9714 4.55997 35.3264 4.43146L35.7801 4.2671C36.135 4.13839 36.5271 4.32208 36.6556 4.67706C36.7841 5.03204 36.6006 5.42404 36.2456 5.55255L35.7919 5.71691C35.7151 5.74474 35.6365 5.75792 35.5592 5.75792C35.2795 5.75792 35.0171 5.58507 34.9164 5.30694ZM29.4683 7.27931C29.3398 6.92433 29.5234 6.53234 29.8783 6.40382L30.3321 6.23956C30.6869 6.11114 31.079 6.29464 31.2075 6.64962C31.3361 7.0046 31.1525 7.39659 30.7975 7.52511L30.3438 7.68937C30.2669 7.7172 30.1884 7.73038 30.1112 7.73038C29.8315 7.73038 29.5691 7.55743 29.4683 7.27931ZM26.7443 8.26564C26.6157 7.91066 26.7992 7.51866 27.1542 7.39015L27.6079 7.22579C27.9629 7.09728 28.3549 7.28077 28.4834 7.63575C28.6119 7.99073 28.4284 8.38273 28.0735 8.51124L27.6198 8.6756C27.5429 8.70343 27.4643 8.71661 27.387 8.71661C27.1073 8.71661 26.8449 8.54376 26.7443 8.26564ZM24.0202 9.25187C23.8917 8.89689 24.0752 8.5049 24.4302 8.37638L24.8839 8.21202C25.2389 8.08331 25.6308 8.267 25.7594 8.62198C25.888 8.97696 25.7044 9.36896 25.3494 9.49747L24.8957 9.66183C24.8189 9.68966 24.7403 9.70284 24.663 9.70284C24.3833 9.70284 24.1209 9.52999 24.0202 9.25187ZM17.5873 11.5808C17.7158 11.9358 17.5323 12.3277 17.1774 12.4563L16.7237 12.6206C16.6468 12.6484 16.5682 12.6616 16.4909 12.6616C16.2113 12.6616 15.9489 12.4887 15.8482 12.2106C15.7197 11.8556 15.9031 11.4636 16.2581 11.3351L16.7118 11.1707C17.0666 11.0421 17.4587 11.2258 17.5873 11.5808ZM20.3115 10.5946C20.44 10.9496 20.2564 11.3416 19.9014 11.4701L19.4477 11.6344C19.3708 11.6622 19.2923 11.6754 19.2151 11.6754C18.9354 11.6754 18.673 11.5025 18.5722 11.2243C18.4437 10.8693 18.6273 10.4774 18.9823 10.3488L19.436 10.1846C19.7909 10.0562 20.1829 10.2397 20.3115 10.5946ZM23.0355 9.60841C23.164 9.96339 22.9804 10.3554 22.6254 10.4839L22.1717 10.6482C22.0948 10.676 22.0163 10.6892 21.9391 10.6892C21.6594 10.6892 21.397 10.5162 21.2962 10.2381C21.1677 9.88312 21.3513 9.49113 21.7063 9.36261L22.16 9.19835C22.515 9.06984 22.9069 9.25343 23.0355 9.60841ZM48.9256 34.5919H47.3464V28.3027C47.3464 26.611 46.007 25.2266 44.3328 25.1532V22.0035C44.3328 20.7798 43.3373 19.7843 42.1136 19.7843H35.8656C34.6418 19.7843 33.6463 20.7798 33.6463 22.0035V25.1532C31.9722 25.2266 30.6328 26.611 30.6328 28.3027V34.5919H29.0536C28.6761 34.5919 28.37 34.898 28.37 35.2755V42.0373C28.37 43.0627 29.2042 43.8969 30.2296 43.8969H30.6328V44.12C30.6328 45.6238 31.6913 46.8844 33.1024 47.1977V47.9351C33.1024 48.8266 33.8277 49.5519 34.7192 49.5519H35.6314C36.5229 49.5519 37.2482 48.8266 37.2482 47.9351V47.2732H40.7312V47.9936C40.7312 48.8851 41.4565 49.6104 42.348 49.6104H43.2602C44.1517 49.6104 44.877 48.8851 44.877 47.9936V47.1977C46.2879 46.8845 47.3465 45.6239 47.3465 44.12V43.8969H47.7497C48.7751 43.8969 49.6093 43.0627 49.6093 42.0373V35.2755C49.6093 34.898 49.3032 34.5919 48.9257 34.5919H48.9256ZM30.2296 42.5297C29.9581 42.5297 29.7372 42.3088 29.7372 42.0373V35.9591H30.6328V42.5297H30.2296ZM35.8656 21.1516H42.1136C42.5834 21.1516 42.9657 21.5338 42.9657 22.0036V25.1497H35.0135V22.0036C35.0135 21.5338 35.3957 21.1516 35.8656 21.1516ZM35.8809 47.935C35.8809 48.0703 35.7666 48.1846 35.6313 48.1846H34.7191C34.5837 48.1846 34.4695 48.0703 34.4695 47.935V47.2731H35.8809V47.935ZM43.2601 48.2431H42.3479C42.2125 48.2431 42.0983 48.1288 42.0983 47.9935V47.2731H43.5097V47.9935C43.5097 48.1288 43.3954 48.2431 43.2601 48.2431ZM45.9792 44.1199C45.9792 45.1047 45.1781 45.9059 44.1933 45.9059H33.7859C32.8011 45.9059 31.9999 45.1047 31.9999 44.1199V28.3027C31.9999 27.3181 32.8011 26.5169 33.7859 26.5169H44.1933C45.1781 26.5169 45.9792 27.3181 45.9792 28.3027V44.1199ZM48.242 42.0373C48.242 42.3088 48.0211 42.5297 47.7496 42.5297H47.3464V35.9591H48.242V42.0373ZM44.8475 44.0905C44.8475 44.4681 44.5414 44.7741 44.1639 44.7741H33.8153C33.4377 44.7741 33.1317 44.4681 33.1317 44.0905C33.1317 43.713 33.4377 43.4069 33.8153 43.4069H44.1639C44.5414 43.4069 44.8475 43.713 44.8475 44.0905ZM44.8475 33.5358V41.2512C44.8475 41.6287 44.5414 41.9348 44.1639 41.9348C43.7864 41.9348 43.4803 41.6287 43.4803 41.2512V33.5358C43.4803 32.9401 42.9957 32.4554 42.4 32.4554H35.5792C34.9835 32.4554 34.499 32.9401 34.499 33.5358V41.2512C34.499 41.6287 34.1929 41.9348 33.8154 41.9348C33.4378 41.9348 33.1318 41.6287 33.1318 41.2512V33.5358C33.1318 32.1861 34.2297 31.0882 35.5792 31.0882H42.4C43.7495 31.0882 44.8475 32.1861 44.8475 33.5358ZM17.4973 27.7442C17.3267 27.7442 17.1559 27.6808 17.0234 27.553L15.9369 26.5073C15.6649 26.2455 15.6567 25.8128 15.9185 25.5408C16.1803 25.2688 16.613 25.2605 16.8851 25.5224L17.9715 26.5681C18.2436 26.8299 18.2519 27.2626 17.99 27.5346C17.8558 27.674 17.6767 27.7442 17.4974 27.7442H17.4973ZM13.3296 25.0449C13.3606 25.4212 13.0807 25.7513 12.7044 25.7823L11.2741 25.9001C11.255 25.9017 11.2361 25.9025 11.2172 25.9025C10.8651 25.9025 10.5661 25.632 10.5366 25.2749C10.5057 24.8986 10.7856 24.5685 11.1618 24.5375L12.5921 24.4197C12.9685 24.3889 13.2986 24.6687 13.3296 25.0449ZM7.91946 25.2738C7.78655 25.4644 7.57405 25.5665 7.35803 25.5665C7.22307 25.5665 7.08674 25.5267 6.9676 25.4437L5.74797 24.5932C5.4383 24.3773 5.36233 23.9512 5.57825 23.6414C5.79426 23.3318 6.22034 23.2559 6.53 23.4717L7.74963 24.3222C8.0593 24.5381 8.13528 24.9642 7.91936 25.2739L7.91946 25.2738ZM17.2681 37.6085L17.4082 36.2029C17.4456 35.8273 17.7811 35.5528 18.1563 35.5905C18.532 35.6279 18.8062 35.9628 18.7687 36.3386L18.6285 37.7442C18.5934 38.0968 18.2961 38.36 17.9491 38.36C17.9265 38.36 17.9036 38.3589 17.8805 38.3566C17.5048 38.3192 17.2306 37.9843 17.2681 37.6085ZM4.96467 20.2704C5.05432 20.6372 4.82961 21.0071 4.46291 21.0967C4.40842 21.11 4.35383 21.1164 4.30012 21.1164C3.99241 21.1164 3.71291 20.9071 3.63664 20.5949L3.27688 19.1225C3.18723 18.7557 3.41194 18.3858 3.77864 18.2962C4.14563 18.2068 4.51536 18.4314 4.60491 18.798L4.96467 20.2704ZM22.9511 46.9472C22.8453 47.2166 22.5875 47.3813 22.3146 47.3813C22.2315 47.3813 22.1471 47.366 22.0651 47.3338L20.7414 46.8144C20.39 46.6765 20.2168 46.2797 20.3548 45.9283C20.4927 45.5769 20.8892 45.4037 21.2408 45.5417L22.5645 46.0611C22.9159 46.199 23.089 46.5958 22.9511 46.9472ZM28.1714 45.7708C28.3009 46.1255 28.1183 46.5179 27.7637 46.6474L26.5591 47.087C26.4818 47.1152 26.4026 47.1286 26.3247 47.1286C26.0457 47.1286 25.7837 46.9566 25.6825 46.6792C25.5531 46.3245 25.7357 45.9321 26.0903 45.8027L27.2948 45.363C27.6495 45.2336 28.0419 45.4161 28.1714 45.7707V45.7708ZM19.1642 42.8237C19.2618 43.1884 19.0453 43.5632 18.6806 43.6609C18.6214 43.6768 18.5619 43.6843 18.5034 43.6843C18.2016 43.6843 17.9253 43.4828 17.8436 43.1773L17.4732 41.7936C17.3755 41.4289 17.592 41.0541 17.9568 40.9565C18.3212 40.8586 18.6962 41.0753 18.7939 41.4401L19.1643 42.8237H19.1642ZM19.3941 30.7388L19.3857 32.2467C19.3836 32.623 19.0779 32.9265 18.7022 32.9265H18.6983C18.3207 32.9243 18.0164 32.6166 18.0185 32.2391L18.0269 30.7312C18.0289 30.3549 18.3347 30.0514 18.7104 30.0514H18.7143C19.0918 30.0534 19.3961 30.3612 19.3941 30.7388Z" fill="#0D263C"/>
</g>
<defs>
<clipPath id="clip0_208_800">
<rect width="50" height="50" fill="white"/>
</clipPath>
</defs>
</svg>
