<svg width="50" height="50" viewBox="0 0 50 50" fill="none" xmlns="http://www.w3.org/2000/svg">
<g clip-path="url(#clip0_208_786)">
<path d="M10.5352 35.0453L13.0211 32.5594C13.1299 32.4505 13.2591 32.3641 13.4014 32.3052C13.5436 32.2462 13.696 32.2159 13.85 32.2159C14.004 32.2159 14.1564 32.2462 14.2986 32.3052C14.4409 32.3641 14.5701 32.4505 14.6789 32.5594L17.4406 35.3211C17.5495 35.4299 17.6359 35.5591 17.6948 35.7014C17.7538 35.8436 17.7841 35.996 17.7841 36.15C17.7841 36.304 17.7538 36.4564 17.6948 36.5986C17.6359 36.7409 17.5495 36.8701 17.4406 36.9789L14.9547 39.4648L10.5352 35.0453Z" fill="#FF94A3"/>
<path d="M17.4406 35.3211L16.336 34.2187C16.1162 33.9991 15.8182 33.8756 15.5074 33.8756C15.1967 33.8756 14.8987 33.9991 14.6789 34.2187L12.193 36.7047L14.9547 39.4672L17.4406 36.9812C17.5499 36.8724 17.6366 36.743 17.6957 36.6006C17.7549 36.4581 17.7853 36.3054 17.7853 36.1512C17.7853 35.9969 17.7549 35.8442 17.6957 35.7018C17.6366 35.5593 17.5499 35.43 17.4406 35.3211Z" fill="#FF798C"/>
<path d="M14.9547 39.4648L6.11563 48.3031C5.52961 48.889 4.73489 49.2181 3.90625 49.2181C3.07762 49.2181 2.2829 48.889 1.69688 48.3031C1.11103 47.7171 0.781921 46.9224 0.781921 46.0938C0.781921 45.2651 1.11103 44.4704 1.69688 43.8844L10.5352 35.0453L14.9547 39.4648Z" fill="#949AA9"/>
<path d="M2.68907 48.968C3.26144 49.2112 3.89346 49.2779 4.50401 49.1595C5.11455 49.041 5.67577 48.7428 6.11563 48.3031L14.9547 39.4648L12.193 36.7023L3.35391 45.5414C2.91477 45.9816 2.61693 46.5428 2.4985 47.1532C2.38006 47.7636 2.44641 48.3955 2.68907 48.968Z" fill="#798193"/>
<path d="M45.6688 4.33125C40.1774 -1.16015 30.2836 -0.171092 23.5719 6.54063C16.8602 13.2523 15.8703 23.1461 21.3617 28.6383C26.8532 34.1305 36.7469 33.1406 43.4594 26.4281C50.1719 19.7156 51.1602 9.82266 45.6688 4.33125ZM23.0196 26.9805C18.443 22.4047 19.4321 13.9953 25.2289 8.19844C31.0258 2.40156 39.4352 1.41172 44.0117 5.98828C48.5883 10.5648 47.5985 18.9742 41.8016 24.7711C36.0047 30.568 27.5953 31.557 23.0196 26.9805Z" fill="#BFC7DD"/>
<path d="M37.5 49.2188C43.9721 49.2188 49.2188 43.9721 49.2188 37.5C49.2188 31.0279 43.9721 25.7812 37.5 25.7812C31.0279 25.7812 25.7812 31.0279 25.7812 37.5C25.7812 43.9721 31.0279 49.2188 37.5 49.2188Z" fill="#EC6325"/>
<path d="M49.2188 37.5C49.2187 35.6978 48.8019 33.9201 48.0009 32.3057C47.1999 30.6913 46.0365 29.284 44.6016 28.1937C41.9723 27.1335 39.0477 27.0633 36.3706 27.9961C33.6935 28.9289 31.4458 30.8014 30.0448 33.266C28.6437 35.7306 28.1846 38.6198 28.7525 41.3973C29.3204 44.1748 30.8768 46.6519 33.1328 48.3687C34.9106 49.086 36.8374 49.3556 38.7438 49.154C40.6501 48.9524 42.4779 48.2856 44.0663 47.2124C45.6547 46.1391 46.9553 44.6922 47.8537 42.9987C48.7521 41.3052 49.2208 39.417 49.2188 37.5Z" fill="#EC6325"/>
<path d="M24.2188 49.2188C26.8076 49.2188 28.9062 47.1201 28.9062 44.5312C28.9062 41.9424 26.8076 39.8438 24.2188 39.8438C21.6299 39.8438 19.5312 41.9424 19.5312 44.5312C19.5312 47.1201 21.6299 49.2188 24.2188 49.2188Z" fill="#EC6325"/>
<path d="M25.3906 41.4063C24.6034 41.4049 23.8286 41.6022 23.1379 41.9798C22.4471 42.3574 21.8628 42.9032 21.439 43.5666C21.0153 44.23 20.7656 44.9895 20.7133 45.775C20.661 46.5605 20.8077 47.3464 21.1398 48.0602C21.9474 48.7679 22.9737 49.1764 24.0467 49.2174C25.1197 49.2583 26.1741 48.9291 27.0332 48.285C27.8924 47.6409 28.5039 46.721 28.7654 45.6795C29.0269 44.6381 28.9225 43.5384 28.4695 42.5649C27.6179 41.8176 26.5235 41.4058 25.3906 41.4063Z" fill="#EC6325"/>
<path d="M43.7758 26.9359C43.8078 26.9039 43.8414 26.8742 43.8735 26.8422C50.8031 19.9133 51.7946 9.62812 46.0828 3.91719C40.3711 -1.79375 30.0867 -0.803125 23.1571 6.12656C17.7867 11.4977 16.0008 18.8758 18.1203 24.5859C17.6845 27.2877 16.4531 29.7983 14.5836 31.7969C14.258 31.6457 13.8939 31.598 13.5403 31.6601C13.1868 31.7223 12.8608 31.8914 12.6063 32.1445L1.27815 43.4727C0.933682 43.8175 0.660509 44.2268 0.474224 44.6772C0.287939 45.1276 0.19219 45.6102 0.192444 46.0976C0.192698 46.585 0.28895 47.0676 0.475704 47.5178C0.662458 47.968 0.936057 48.377 1.28088 48.7215C1.6257 49.0659 2.035 49.3391 2.48539 49.5254C2.93578 49.7117 3.41846 49.8074 3.90586 49.8072C4.39326 49.8069 4.87583 49.7107 5.32604 49.5239C5.77624 49.3372 6.18524 49.0636 6.52971 48.7188L17.8578 37.3906C18.111 37.1361 18.2801 36.8101 18.3422 36.4566C18.4044 36.103 18.3567 35.7389 18.2055 35.4133C20.1938 33.5543 22.6884 32.3263 25.3742 31.8844C25.7086 32.0102 26.0508 32.1188 26.3977 32.2188C25.6078 33.8674 25.197 35.6719 25.1953 37.5C25.2011 38.1316 25.2551 38.7618 25.3571 39.3852C24.3736 39.1669 23.3482 39.2349 22.4023 39.5812C21.4563 39.9274 20.6293 40.5374 20.0191 41.339C19.409 42.1406 19.0412 43.1001 18.9594 44.1042C18.8776 45.1082 19.085 46.1147 19.5573 47.0045C20.0296 47.8943 20.7469 48.6302 21.6243 49.1251C22.5017 49.62 23.5025 49.8531 24.5083 49.797C25.5141 49.7409 26.4828 49.3979 27.2997 48.8084C28.1166 48.219 28.7476 47.4079 29.118 46.4711C29.2742 46.6188 29.4203 46.7836 29.5867 46.9203C30.8872 48.0155 32.4007 48.8291 34.0315 49.3098C35.6624 49.7904 37.3752 49.9277 39.0618 49.7128C40.7484 49.498 42.3721 48.9357 43.8303 48.0615C45.2886 47.1874 46.5498 46.0203 47.5341 44.634C48.5185 43.2478 49.2047 41.6724 49.5494 40.0075C49.8941 38.3426 49.8898 36.6243 49.5367 34.9612C49.1837 33.298 48.4896 31.7261 47.4983 30.3448C46.507 28.9635 45.24 27.8028 43.7774 26.9359H43.7758ZM44.186 28.6203L37.4274 36.675L34.1063 33.8875C34.8351 32.8289 35.335 31.6299 35.574 30.3671C35.813 29.1044 35.786 27.8056 35.4945 26.5539C36.1561 26.4315 36.8273 26.3688 37.5 26.3664C39.9149 26.3683 42.2628 27.1598 44.186 28.6203ZM33.5156 6.26484L35.4485 8.19844L33.5156 10.1313L31.5821 8.19844L33.5156 6.26484ZM33.1063 4.19844C33.4633 4.10156 33.8188 4.01641 34.1742 3.94844L33.5156 4.60938L33.1063 4.19844ZM39.0399 6.26484L40.9727 8.19844L39.0399 10.1313L37.1094 8.19844L39.0399 6.26484ZM38.2586 3.82578C38.6963 3.88664 39.1297 3.97509 39.5563 4.09062L39.0399 4.60703L38.2586 3.82578ZM33.5156 17.3133L35.4485 19.2469L33.5156 21.1805L31.5821 19.2469L33.5156 17.3133ZM30.7531 18.418L28.8195 16.4844L30.7531 14.5508L32.6867 16.4844L30.7531 18.418ZM34.3469 16.4844L36.2805 14.5508L38.211 16.4844L36.2774 18.418L34.3469 16.4844ZM39.043 17.3133L40.9758 19.2469L39.043 21.1805L37.1094 19.2469L39.043 17.3133ZM39.8711 16.4844L41.8047 14.5508L43.7352 16.4844L41.8016 18.418L39.8711 16.4844ZM39.8711 10.9602L41.8047 9.02656L43.7383 10.9602L41.8016 12.8906L39.8711 10.9602ZM40.9758 13.7227L39.0399 15.6562L37.1094 13.7227L39.043 11.7891L40.9758 13.7227ZM36.2774 12.8906L34.3438 10.9602L36.2774 9.02656L38.211 10.9602L36.2774 12.8906ZM35.4485 13.7195L33.5156 15.6562L31.5821 13.7227L33.5156 11.7891L35.4485 13.7195ZM30.7531 12.8906L28.8195 10.957L30.7531 9.02344L32.6867 10.957L30.7531 12.8906ZM29.9219 13.7227L27.9906 15.6562L26.0578 13.7227L27.9906 11.7891L29.9219 13.7227ZM27.1625 16.4844L25.2289 18.418L23.2953 16.4844L25.2289 14.5508L27.1625 16.4844ZM27.1625 22.0086L25.2289 23.9422L23.2953 22.0086L25.2289 20.0781L27.1625 22.0086ZM26.0578 19.2469L27.9906 17.3133L29.9219 19.2469L27.9883 21.1805L26.0578 19.2469ZM30.7531 20.075L32.6867 22.0086L30.7531 23.9422L28.8195 22.0086L30.7531 20.075ZM31.7641 26.6102C30.9432 27.0471 30.1747 27.576 29.4735 28.1867L28.8195 27.5328L30.7531 25.5992L31.7641 26.6102ZM31.5821 24.7711L33.5156 22.8375L35.4485 24.7711L34.6906 25.5289C34.0781 25.6678 33.4773 25.8543 32.8938 26.0867L31.5821 24.7711ZM34.3438 22.0086L36.2774 20.0781L38.211 22.0117L36.2774 23.9453L34.3438 22.0086ZM39.0399 22.8375L40.9617 24.7602C40.6938 25.0117 40.4149 25.2516 40.1352 25.4867C39.2803 25.2975 38.4076 25.2003 37.5321 25.1969L37.1063 24.7711L39.0399 22.8375ZM39.868 22.0086L41.8016 20.0781L43.511 21.7875C42.9912 22.5443 42.4143 23.2602 41.7852 23.9289L39.868 22.0086ZM42.6305 19.2469L44.5641 17.3133L45.3992 18.1484C45.0645 19.0588 44.6488 19.9373 44.1571 20.7734L42.6305 19.2469ZM45.3906 16.4844L46.05 15.8258C45.9821 16.1812 45.8938 16.5367 45.7992 16.893L45.3906 16.4844ZM44.5625 15.6562L42.6289 13.7227L44.5625 11.7891L46.2922 13.5156C46.2922 13.6562 46.286 13.7977 46.2789 13.9391L44.5625 15.6562ZM45.3906 10.9602L45.9071 10.4437C46.0225 10.8704 46.1112 11.3038 46.1727 11.7414L45.3906 10.9602ZM44.5625 10.1313L42.6289 8.19844L43.9844 6.84375C44.6065 7.54836 45.1135 8.34672 45.4867 9.20937L44.5625 10.1313ZM41.8016 7.36953L39.868 5.43594L40.7906 4.51328C41.6533 4.88651 42.4517 5.39352 43.1563 6.01562L41.8016 7.36953ZM36.2774 7.36953L34.3438 5.43594L36.0625 3.71719C36.2039 3.71094 36.3446 3.70625 36.4852 3.70391L38.211 5.43594L36.2774 7.36953ZM30.7531 7.36953L29.2266 5.84219C30.0628 5.35124 30.941 4.93554 31.8508 4.6L32.6867 5.43594L30.7531 7.36953ZM29.9219 8.19844L27.9883 10.1313L26.0719 8.21484C26.7404 7.58553 27.4563 7.00856 28.2133 6.48906L29.9219 8.19844ZM27.1602 10.9602L25.2289 12.8906L23.5196 11.1812C24.0393 10.4244 24.6162 9.70854 25.2453 9.03984L27.1602 10.9602ZM24.3977 13.7227L22.4664 15.6562L21.6313 14.8203C21.9668 13.9103 22.3825 13.0318 22.8735 12.1953L24.3977 13.7227ZM21.6406 16.4844L20.9813 17.1437C21.05 16.7883 21.1375 16.432 21.2321 16.0758L21.6406 16.4844ZM22.4688 17.3133L24.4024 19.2469L22.4688 21.1805L20.7383 19.4531C20.7383 19.3125 20.7446 19.1719 20.7516 19.0305L22.4688 17.3133ZM21.6406 22.0086L21.1242 22.525C21.0086 22.0985 20.9202 21.6651 20.8594 21.2273L21.6406 22.0086ZM22.4688 22.8375L24.4024 24.7711L23.0469 26.125C22.4248 25.4207 21.9178 24.6226 21.5446 23.7602L22.4688 22.8375ZM25.2313 25.5992L27.1649 27.5328L26.2477 28.45C25.3816 28.083 24.5785 27.5821 23.868 26.9656L25.2313 25.5992ZM26.0602 24.7711L27.993 22.8375L29.9219 24.7711L27.9883 26.7047L26.0602 24.7711ZM27.993 28.3648L28.625 28.9969C28.5883 29.0352 28.5547 29.075 28.518 29.1141C28.1663 29.0536 27.818 28.9754 27.4742 28.8797L27.993 28.3648ZM28.618 30.8133L32.4578 34.0352C31.6593 34.7958 30.7139 35.3856 29.6795 35.7683C28.6451 36.151 27.5436 36.3186 26.4422 36.2609C26.6599 34.2809 27.4108 32.397 28.6149 30.8102L28.618 30.8133ZM29.3727 29.9164C29.4602 29.8219 29.5399 29.7227 29.6313 29.6313C30.9456 28.3122 32.5716 27.3461 34.3586 26.8227C34.6075 27.8979 34.634 29.0127 34.4367 30.0986C34.2393 31.1844 33.8222 32.2186 33.211 33.1375L29.3727 29.9164ZM5.70315 47.8906C5.46718 48.1266 5.18704 48.3138 4.87873 48.4415C4.57042 48.5692 4.23998 48.6349 3.90627 48.6349C3.57256 48.6349 3.24212 48.5692 2.93381 48.4415C2.6255 48.3138 2.34536 48.1266 2.1094 47.8906C1.87343 47.6547 1.68625 47.3745 1.55854 47.0662C1.43083 46.7579 1.36511 46.4275 1.36511 46.0938C1.36511 45.76 1.43083 45.4296 1.55854 45.1213C1.68625 44.813 1.87343 44.5328 2.1094 44.2969L10.5344 35.8742L14.1281 39.468L5.70315 47.8906ZM17.0313 36.5625L14.9594 38.6344L11.3656 35.0406L13.4375 32.9742C13.5475 32.8647 13.6964 32.8032 13.8516 32.8032C14.0068 32.8032 14.1557 32.8647 14.2656 32.9742L17.0281 35.7367C17.1367 35.8469 17.1973 35.9955 17.1968 36.1501C17.1964 36.3047 17.1349 36.4529 17.0258 36.5625H17.0313ZM17.4625 34.5086L15.4946 32.5406C17.1209 30.781 18.2999 28.6558 18.9321 26.3445C20.0188 28.3376 21.6524 29.9786 23.6406 31.0742C21.3341 31.7083 19.2135 32.8869 17.4571 34.5109L17.4625 34.5086ZM21.7821 28.2211C16.5219 22.9688 17.5125 13.4281 23.9844 6.95312C30.4563 0.478124 40 -0.509375 45.2547 4.74531C50.5094 10 49.518 19.5406 43.0469 26.0156C42.9297 26.1328 42.8078 26.2453 42.6883 26.3594C42.2989 26.1763 41.8998 26.0144 41.493 25.8742C41.7406 25.6508 41.9836 25.4219 42.218 25.1867C48.2336 19.1711 49.2258 10.3734 44.4281 5.57734C39.6305 0.78125 30.8344 1.77031 24.8188 7.78672C18.8031 13.8031 17.811 22.6008 22.6086 27.3961C23.9992 28.7696 25.7508 29.7204 27.6602 30.1383C27.4121 30.4679 27.1811 30.81 26.968 31.1633C25.0048 30.6676 23.2115 29.652 21.7766 28.2234L21.7821 28.2211ZM24.2188 48.6328C23.6316 48.6305 23.0519 48.501 22.5196 48.2531C22.9908 47.3926 23.2392 46.4279 23.2422 45.4469V44.5312C23.2422 44.2723 23.3451 44.0239 23.5282 43.8407C23.7114 43.6576 23.9598 43.5547 24.2188 43.5547C24.4778 43.5547 24.7262 43.6576 24.9093 43.8407C25.0924 44.0239 25.1953 44.2723 25.1953 44.5312V45.4469C25.1983 46.4279 25.4467 47.3927 25.918 48.2531C25.3857 48.501 24.806 48.6305 24.2188 48.6328ZM26.8969 47.6125C26.5496 46.9434 26.368 46.2007 26.3672 45.4469V44.5312C26.3672 43.9614 26.1409 43.415 25.7379 43.0121C25.335 42.6092 24.7886 42.3828 24.2188 42.3828C23.649 42.3828 23.1025 42.6092 22.6996 43.0121C22.2967 43.415 22.0703 43.9614 22.0703 44.5312V45.4469C22.0694 46.2007 21.8878 46.9433 21.5406 47.6125C20.9067 47.0659 20.4551 46.3385 20.2465 45.5278C20.038 44.7172 20.0825 43.8621 20.374 43.0775C20.6655 42.2928 21.1902 41.6162 21.8774 41.1383C22.5647 40.6605 23.3817 40.4044 24.2188 40.4044C25.0558 40.4044 25.8728 40.6605 26.5601 41.1383C27.2474 41.6162 27.772 42.2928 28.0635 43.0775C28.3551 43.8621 28.3995 44.7172 28.191 45.5278C27.9825 46.3385 27.5309 47.0659 26.8969 47.6125ZM29.4531 45.1734C29.5915 44.1019 29.394 43.0138 28.8879 42.0592C28.3818 41.1046 27.5919 40.3305 26.6274 39.8438C26.458 39.0739 26.3708 38.2883 26.3672 37.5C26.3672 37.475 26.3711 37.4508 26.3711 37.4258C27.6545 37.4953 28.9384 37.2964 30.1406 36.8417C31.3428 36.387 32.4369 35.6866 33.3531 34.7852L36.6742 37.5727L29.9117 45.6313C29.7539 45.4836 29.6016 45.3281 29.4531 45.1734ZM37.5 48.6328C35.0853 48.6284 32.7374 47.8393 30.8102 46.3844L37.5719 38.3258L40.8938 41.1125C40.1654 42.1706 39.6657 43.3689 39.4266 44.6309C39.1874 45.893 39.214 47.191 39.5047 48.4422C38.8436 48.5664 38.1726 48.6302 37.5 48.6328ZM40.6438 48.1734C40.3959 47.0994 40.3698 45.986 40.5672 44.9016C40.7645 43.8171 41.1811 42.7843 41.7914 41.8664L45.625 45.0844C44.2703 46.5404 42.5503 47.6071 40.6438 48.1734ZM46.3797 44.1891L42.5446 40.9688C43.3428 40.2076 44.2882 39.6175 45.3226 39.2346C46.357 38.8518 47.4587 38.6842 48.5602 38.7422C48.3366 40.7202 47.5833 42.6012 46.3797 44.1867V44.1891ZM41.6469 40.2172L38.325 37.4305L45.0836 29.375C46.2019 30.4126 47.0942 31.6696 47.7048 33.0676C48.3153 34.4656 48.631 35.9745 48.632 37.5V37.5734C47.348 37.5034 46.0635 37.7021 44.8607 38.1569C43.6579 38.6118 42.5633 39.3127 41.6469 40.2148V40.2172Z" fill="#0D263C"/>
</g>
<defs>
<clipPath id="clip0_208_786">
<rect width="50" height="50" fill="white"/>
</clipPath>
</defs>
</svg>
