<svg width="50" height="50" viewBox="0 0 50 50" fill="none" xmlns="http://www.w3.org/2000/svg">
<path d="M19.1406 23.625V42.8047L24.7266 37.2266C24.7616 37.1892 24.804 37.1594 24.851 37.1391C24.898 37.1187 24.9488 37.1082 25 37.1082C25.0512 37.1082 25.1019 37.1187 25.149 37.1391C25.196 37.1594 25.2384 37.1892 25.2734 37.2266L30.8594 42.8047V23.625C28.9375 23.7578 26.9531 23.8281 25 23.8281C23.0469 23.8281 21.0938 23.7578 19.1406 23.625Z" fill="#EC6325"/>
<path d="M33.1719 23.4375L37.0234 42.7266L41.1797 36.0625C41.2053 36.0183 41.2397 35.9797 41.2807 35.9493C41.3218 35.9188 41.3686 35.8971 41.4183 35.8854C41.4681 35.8736 41.5197 35.8722 41.57 35.8812C41.6203 35.8902 41.6683 35.9093 41.7109 35.9375L48.4375 40.1094L44.625 21.0156C40.9294 22.3195 37.0789 23.1337 33.1719 23.4375Z" fill="#EC6325"/>
<path d="M1.5625 40.1719L8.29688 35.9375C8.38514 35.8818 8.49144 35.8622 8.59375 35.8828C8.69396 35.906 8.78098 35.9677 8.83594 36.0547L13.0234 42.7031L16.8047 23.4375C12.895 23.1339 9.04198 22.3197 5.34375 21.0156L1.5625 40.1719Z" fill="#EC6325"/>
<path d="M28.125 31.25C28.125 32.0788 27.7958 32.8737 27.2097 33.4597C26.6237 34.0458 25.8288 34.375 25 34.375C24.1712 34.375 23.3763 34.0458 22.7903 33.4597C22.2042 32.8737 21.875 32.0788 21.875 31.25C21.875 29.5234 23.2734 26.5625 25 26.5625C26.7266 26.5625 28.125 29.5234 28.125 31.25Z" fill="#C7D5E1"/>
<path d="M12.9453 30.8672C12.8545 31.2678 12.6857 31.6466 12.4485 31.982C12.2113 32.3174 11.9103 32.6028 11.5628 32.8219C11.2153 33.041 10.8281 33.1895 10.4232 33.2589C10.0183 33.3283 9.60373 33.3173 9.2031 33.2265C8.80246 33.1358 8.42364 32.9669 8.08825 32.7297C7.75285 32.4925 7.46747 32.1916 7.24838 31.8441C7.02929 31.4966 6.88079 31.1094 6.81136 30.7045C6.74193 30.2996 6.75293 29.885 6.84372 29.4844C7.22654 27.8047 9.24997 25.2266 10.9297 25.5781C12.6093 25.9297 13.3203 29.1875 12.9453 30.8672Z" fill="#C7D5E1"/>
<path d="M43.1407 29.4531C43.3282 30.2612 43.187 31.1107 42.7482 31.8147C42.3094 32.5187 41.6089 33.0195 40.8008 33.207C39.9927 33.3946 39.1433 33.2534 38.4393 32.8146C37.7353 32.3758 37.2344 31.6753 37.0469 30.8672C36.6563 29.1875 37.3516 25.9844 39.0313 25.5938C40.711 25.2031 42.75 27.7734 43.1407 29.4531Z" fill="#C7D5E1"/>
<path d="M28.8359 10.2422C26.125 10.7422 25.5859 11.2812 25.0859 13.9922C25.0859 14.015 25.0769 14.0368 25.0608 14.053C25.0447 14.0691 25.0228 14.0781 25 14.0781C24.9772 14.0781 24.9553 14.0691 24.9392 14.053C24.9231 14.0368 24.9141 14.015 24.9141 13.9922C24.4141 11.2812 23.875 10.7422 21.1641 10.2422C21.1413 10.2422 21.1194 10.2331 21.1033 10.217C21.0872 10.2009 21.0781 10.179 21.0781 10.1562C21.0781 10.1335 21.0872 10.1116 21.1033 10.0955C21.1194 10.0794 21.1413 10.0703 21.1641 10.0703C23.875 9.57031 24.4141 9.03125 24.9141 6.32031C24.9141 6.29752 24.9231 6.27566 24.9392 6.25955C24.9553 6.24343 24.9772 6.23438 25 6.23438C25.0228 6.23438 25.0447 6.24343 25.0608 6.25955C25.0769 6.27566 25.0859 6.29752 25.0859 6.32031C25.5859 9.03125 26.125 9.57031 28.8359 10.0703C28.8587 10.0703 28.8806 10.0794 28.8967 10.0955C28.9128 10.1116 28.9219 10.1335 28.9219 10.1562C28.9219 10.179 28.9128 10.2009 28.8967 10.217C28.8806 10.2331 28.8587 10.2422 28.8359 10.2422Z" fill="#EC6325"/>
<path d="M17.1172 12.5859C14.4062 13.0859 13.8672 13.625 13.3672 16.3359C13.3672 16.3587 13.3581 16.3806 13.342 16.3967C13.3259 16.4128 13.304 16.4219 13.2813 16.4219C13.2585 16.4219 13.2366 16.4128 13.2205 16.3967C13.2044 16.3806 13.1953 16.3587 13.1953 16.3359C12.6953 13.625 12.1563 13.0859 9.44531 12.5859C9.42252 12.5859 9.40066 12.5769 9.38455 12.5608C9.36843 12.5447 9.35938 12.5228 9.35938 12.5C9.35938 12.4772 9.36843 12.4553 9.38455 12.4392C9.40066 12.4231 9.42252 12.4141 9.44531 12.4141C12.1563 11.9141 12.6953 11.375 13.1953 8.66406C13.1953 8.64127 13.2044 8.61941 13.2205 8.6033C13.2366 8.58718 13.2585 8.57812 13.2813 8.57812C13.304 8.57812 13.3259 8.58718 13.342 8.6033C13.3581 8.61941 13.3672 8.64127 13.3672 8.66406C13.8672 11.375 14.4062 11.9141 17.1172 12.4141C17.14 12.4141 17.1618 12.4231 17.178 12.4392C17.1941 12.4553 17.2031 12.4772 17.2031 12.5C17.2031 12.5228 17.1941 12.5447 17.178 12.5608C17.1618 12.5769 17.14 12.5859 17.1172 12.5859Z" fill="#EC6325"/>
<path d="M40.5547 12.5859C37.8438 13.0859 37.3047 13.625 36.8047 16.3359C36.8047 16.3587 36.7956 16.3806 36.7795 16.3967C36.7634 16.4128 36.7415 16.4219 36.7188 16.4219C36.696 16.4219 36.6741 16.4128 36.658 16.3967C36.6419 16.3806 36.6328 16.3587 36.6328 16.3359C36.1328 13.625 35.5938 13.0859 32.8828 12.5859C32.86 12.5859 32.8382 12.5769 32.822 12.5608C32.8059 12.5447 32.7969 12.5228 32.7969 12.5C32.7969 12.4772 32.8059 12.4553 32.822 12.4392C32.8382 12.4231 32.86 12.4141 32.8828 12.4141C35.5938 11.9141 36.1328 11.375 36.6328 8.66406C36.6328 8.64127 36.6419 8.61941 36.658 8.6033C36.6741 8.58718 36.696 8.57812 36.7188 8.57812C36.7415 8.57812 36.7634 8.58718 36.7795 8.6033C36.7956 8.61941 36.8047 8.64127 36.8047 8.66406C37.3047 11.375 37.8438 11.9141 40.5547 12.4141C40.5775 12.4141 40.5993 12.4231 40.6155 12.4392C40.6316 12.4553 40.6406 12.4772 40.6406 12.5C40.6406 12.5228 40.6316 12.5447 40.6155 12.5608C40.5993 12.5769 40.5775 12.5859 40.5547 12.5859Z" fill="#EC6325"/>
<path d="M47.9922 17.5781H44.8672C43.7266 19.8594 32.6328 20.7031 25.0391 20.7031C17.4453 20.7031 6.35156 19.8594 5.21094 17.5781H2.00781C2.78906 20.2891 11.8438 23.0469 25 23.0469C38.1562 23.0469 47.1875 20.3125 47.9922 17.5781Z" fill="#0D263C"/>
<path d="M21.0938 31.25C21.0938 32.286 21.5053 33.2796 22.2379 34.0121C22.9704 34.7447 23.964 35.1562 25 35.1562C26.036 35.1562 27.0296 34.7447 27.7621 34.0121C28.4947 33.2796 28.9062 32.286 28.9062 31.25C28.9062 29.375 27.3438 25.7812 25 25.7812C22.6562 25.7812 21.0938 29.375 21.0938 31.25ZM27.3438 31.25C27.3438 31.8716 27.0968 32.4677 26.6573 32.9073C26.2177 33.3468 25.6216 33.5938 25 33.5938C24.3784 33.5938 23.7823 33.3468 23.3427 32.9073C22.9032 32.4677 22.6562 31.8716 22.6562 31.25C22.6562 29.6875 23.9141 27.3438 25 27.3438C26.0859 27.3438 27.3438 29.6875 27.3438 31.25Z" fill="#0D263C"/>
<path d="M9.03125 33.9844C9.31521 34.0528 9.60636 34.0869 9.89844 34.0859C10.7841 34.0846 11.643 33.7824 12.3343 33.2287C13.0256 32.6751 13.5083 31.903 13.7031 31.0391C13.9182 29.8597 13.8322 28.6451 13.4531 27.5078C12.9766 26.0234 12.1406 25.0781 11.1094 24.8438C10.0781 24.6094 8.91407 25.1016 7.84375 26.2344C7.01125 27.0972 6.40941 28.1558 6.09375 29.3125C5.86486 30.3215 6.04561 31.3801 6.59632 32.2559C7.14704 33.1318 8.02274 33.7534 9.03125 33.9844ZM7.60938 29.6875C7.86822 28.8086 8.33443 28.0048 8.96875 27.3438C9.3694 26.8347 9.94652 26.4946 10.5859 26.3906C10.6429 26.3825 10.7008 26.3825 10.7578 26.3906C11.8203 26.6328 12.5234 29.2188 12.1797 30.7188C12.0366 31.3204 11.6616 31.8412 11.1362 32.1675C10.6108 32.4939 9.97778 32.5993 9.375 32.4609C8.77566 32.3228 8.25463 31.9546 7.92432 31.4357C7.59402 30.9169 7.4809 30.289 7.60938 29.6875Z" fill="#0D263C"/>
<path d="M38.8594 24.8359C37.8203 25.0703 36.9922 26.0234 36.5156 27.5078C36.1408 28.6489 36.0601 29.8663 36.2813 31.0469C36.5164 32.0559 37.1428 32.9302 38.0226 33.4775C38.9024 34.0247 39.9636 34.2 40.9727 33.9648C41.9817 33.7297 42.856 33.1033 43.4033 32.2235C43.9505 31.3437 44.1258 30.2825 43.8906 29.2734C43.4766 27.4453 41.1797 24.2891 38.8594 24.8359ZM42.0859 31.3984C41.9257 31.663 41.7147 31.8933 41.4651 32.0759C41.2154 32.2585 40.9321 32.39 40.6314 32.4626C40.3308 32.5352 40.0187 32.5476 39.7132 32.4991C39.4077 32.4505 39.1149 32.342 38.8516 32.1797C38.3253 31.8496 37.9516 31.3242 37.8125 30.7187C37.661 29.815 37.728 28.8882 38.0078 28.0156C38.2969 27.1016 38.7891 26.4531 39.2109 26.3828H39.3984C40.4609 26.3828 42.0469 28.2578 42.375 29.6797C42.5032 30.2685 42.3997 30.884 42.0859 31.3984Z" fill="#0D263C"/>
<path d="M24.1406 14.1328C24.1789 14.3327 24.2857 14.5129 24.4425 14.6426C24.5994 14.7723 24.7965 14.8432 25 14.8432C25.2035 14.8432 25.4006 14.7723 25.5575 14.6426C25.7143 14.5129 25.8211 14.3327 25.8594 14.1328C26.2969 11.7422 26.5859 11.4531 28.9844 11.0078C29.1842 10.9695 29.3645 10.8628 29.4942 10.7059C29.6238 10.5491 29.6947 10.3519 29.6947 10.1484C29.6947 9.94493 29.6238 9.74779 29.4942 9.59094C29.3645 9.43409 29.1842 9.32734 28.9844 9.28905C26.5937 8.85155 26.3047 8.56249 25.8594 6.16405C25.8211 5.96419 25.7143 5.78392 25.5575 5.65426C25.4006 5.52461 25.2035 5.45367 25 5.45367C24.7965 5.45367 24.5994 5.52461 24.4425 5.65426C24.2857 5.78392 24.1789 5.96419 24.1406 6.16405C23.7031 8.55468 23.4141 8.84374 21.0156 9.28905C20.8158 9.32734 20.6355 9.43409 20.5058 9.59094C20.3762 9.74779 20.3052 9.94493 20.3052 10.1484C20.3052 10.3519 20.3762 10.5491 20.5058 10.7059C20.6355 10.8628 20.8158 10.9695 21.0156 11.0078C23.4375 11.4531 23.7031 11.7187 24.1406 14.1328ZM25 8.77343C25.296 9.37413 25.7821 9.86025 26.3828 10.1562C25.7821 10.4522 25.296 10.9384 25 11.5391C24.704 10.9384 24.2179 10.4522 23.6172 10.1562C24.2179 9.86025 24.704 9.37413 25 8.77343Z" fill="#0D263C"/>
<path d="M12.4219 16.4766C12.4602 16.6764 12.5669 16.8567 12.7238 16.9863C12.8806 17.116 13.0777 17.1869 13.2812 17.1869C13.4847 17.1869 13.6819 17.116 13.8387 16.9863C13.9956 16.8567 14.1023 16.6764 14.1406 16.4766C14.5781 14.0859 14.8672 13.7969 17.2656 13.3516C17.4655 13.3133 17.6458 13.2065 17.7754 13.0497C17.9051 12.8928 17.976 12.6957 17.976 12.4922C17.976 12.2887 17.9051 12.0915 17.7754 11.9347C17.6458 11.7778 17.4655 11.6711 17.2656 11.6328C14.875 11.1953 14.5859 10.9062 14.1406 8.50781C14.1023 8.30794 13.9956 8.12767 13.8387 7.99801C13.6819 7.86836 13.4847 7.79742 13.2812 7.79742C13.0777 7.79742 12.8806 7.86836 12.7238 7.99801C12.5669 8.12767 12.4602 8.30794 12.4219 8.50781C11.9844 10.8984 11.6953 11.1875 9.29687 11.6328C9.097 11.6711 8.91673 11.7778 8.78707 11.9347C8.65742 12.0915 8.58649 12.2887 8.58649 12.4922C8.58649 12.6957 8.65742 12.8928 8.78707 13.0497C8.91673 13.2065 9.097 13.3133 9.29687 13.3516C11.7187 13.7969 11.9844 14.0625 12.4219 16.4766ZM13.2812 11.1172C13.5772 11.7179 14.0634 12.204 14.6641 12.5C14.0634 12.796 13.5772 13.2821 13.2812 13.8828C12.9852 13.2821 12.4991 12.796 11.8984 12.5C12.4991 12.204 12.9852 11.7179 13.2812 11.1172Z" fill="#0D263C"/>
<path d="M35.8594 16.4766C35.8977 16.6764 36.0044 16.8567 36.1613 16.9863C36.3181 17.116 36.5152 17.1869 36.7187 17.1869C36.9222 17.1869 37.1194 17.116 37.2762 16.9863C37.4331 16.8567 37.5398 16.6764 37.5781 16.4766C38.0156 14.0859 38.3047 13.7969 40.7031 13.3516C40.903 13.3133 41.0833 13.2065 41.2129 13.0497C41.3426 12.8928 41.4135 12.6957 41.4135 12.4922C41.4135 12.2887 41.3426 12.0915 41.2129 11.9347C41.0833 11.7778 40.903 11.6711 40.7031 11.6328C38.3125 11.1953 38.0234 10.9062 37.5781 8.50781C37.5398 8.30794 37.4331 8.12767 37.2762 7.99801C37.1194 7.86836 36.9222 7.79742 36.7187 7.79742C36.5152 7.79742 36.3181 7.86836 36.1613 7.99801C36.0044 8.12767 35.8977 8.30794 35.8594 8.50781C35.4219 10.8984 35.1328 11.1875 32.7344 11.6328C32.5345 11.6711 32.3542 11.7778 32.2246 11.9347C32.0949 12.0915 32.024 12.2887 32.024 12.4922C32.024 12.6957 32.0949 12.8928 32.2246 13.0497C32.3542 13.2065 32.5345 13.3133 32.7344 13.3516C35.1562 13.7969 35.4219 14.0625 35.8594 16.4766ZM36.7187 11.1172C37.0147 11.7179 37.5009 12.204 38.1016 12.5C37.5009 12.796 37.0147 13.2821 36.7187 13.8828C36.4227 13.2821 35.9366 12.796 35.3359 12.5C35.9366 12.204 36.4227 11.7179 36.7187 11.1172Z" fill="#0D263C"/>
<path d="M45.7969 20.9219C47.9297 19.8984 49.2187 18.6484 49.2187 17.1875C49.2187 16.9803 49.1364 16.7816 48.9899 16.6351C48.8434 16.4886 48.6447 16.4063 48.4375 16.4063H44.5312C44.3357 16.4055 44.1469 16.4781 44.0023 16.6097C43.8576 16.7413 43.7676 16.9224 43.75 17.1172C43.0469 18.1094 36.0469 19.5313 25 19.5313C13.9531 19.5313 6.95312 18.1094 6.25 17.1172C6.2324 16.9224 6.14238 16.7413 5.99773 16.6097C5.85308 16.4781 5.66432 16.4055 5.46875 16.4063H1.5625C1.3553 16.4063 1.15658 16.4886 1.01007 16.6351C0.863558 16.7816 0.781248 16.9803 0.781248 17.1875C0.781248 18.6406 2.05469 19.8828 4.16406 20.9063L0.257811 40.8359C0.230745 40.9832 0.246546 41.1351 0.303331 41.2736C0.360117 41.4121 0.455497 41.5313 0.578123 41.6172C0.705684 41.7012 0.855072 41.746 1.00781 41.746C1.16055 41.746 1.30994 41.7012 1.4375 41.6172L8.25781 37.3203L12.5469 44.1328C12.6172 44.2454 12.7151 44.3382 12.8313 44.4024C12.9475 44.4667 13.0782 44.5003 13.2109 44.5H13.3516C13.5056 44.4716 13.6476 44.3976 13.759 44.2876C13.8705 44.1775 13.9463 44.0365 13.9766 43.8828L17.8828 23.8984H17.9687V43.75C17.9695 43.9042 18.0159 44.0548 18.1021 44.1827C18.1883 44.3106 18.3105 44.4101 18.4531 44.4688C18.5954 44.5286 18.7522 44.5449 18.9038 44.5157C19.0553 44.4865 19.1948 44.4131 19.3047 44.3047L25 38.6016L30.6953 44.3047C30.7683 44.3771 30.8549 44.4344 30.9501 44.4733C31.0453 44.5121 31.1472 44.5318 31.25 44.5313C31.3525 44.5339 31.4542 44.5125 31.5469 44.4688C31.6895 44.4101 31.8117 44.3106 31.8979 44.1827C31.9841 44.0548 32.0305 43.9042 32.0312 43.75V23.9219L36.0703 43.9063C36.1007 44.0646 36.1793 44.2097 36.2954 44.3216C36.4115 44.4335 36.5594 44.5067 36.7187 44.5313C36.7653 44.539 36.8128 44.539 36.8594 44.5313C36.9921 44.5315 37.1228 44.4979 37.239 44.4337C37.3552 44.3695 37.4531 44.2767 37.5234 44.1641L41.7812 37.3281L48.6172 41.5859C48.7439 41.6633 48.8901 41.7029 49.0386 41.7001C49.187 41.6973 49.3316 41.6523 49.4554 41.5703C49.5792 41.4884 49.6771 41.3728 49.7375 41.2372C49.798 41.1016 49.8186 40.9516 49.7969 40.8047L45.7969 20.9219ZM12.8281 41.6641L9.17187 35.8594C9.11732 35.771 9.04569 35.6944 8.96118 35.634C8.87667 35.5737 8.78097 35.5308 8.67968 35.5078C8.47862 35.4631 8.26803 35.4996 8.09375 35.6094L2.14844 39.3594L5.63281 21.5234C9.09707 22.7011 12.6907 23.4565 16.3359 23.7734L12.8281 41.6641ZM30.4687 41.8672L25.5547 36.9453C25.4821 36.8721 25.3956 36.814 25.3004 36.7743C25.2052 36.7346 25.1031 36.7142 25 36.7142C24.8969 36.7142 24.7947 36.7346 24.6995 36.7743C24.6043 36.814 24.5179 36.8721 24.4453 36.9453L19.5312 41.8672V24.0391C21.3359 24.1563 23.1797 24.2188 25 24.2188C26.8203 24.2188 28.6641 24.1563 30.4687 24.0391V41.8672ZM25 22.6563C12.5 22.6563 4.30469 20.1328 2.65625 17.9688H5C7.34375 21 23.1094 21.0938 25.0312 21.0938C26.9531 21.0938 42.7422 21 45.0625 17.9688H47.4062C45.6953 20.1328 37.5 22.6563 25 22.6563ZM41.9219 35.5859C41.8347 35.5314 41.7376 35.4946 41.6362 35.4776C41.5348 35.4607 41.4311 35.4639 41.3309 35.4871C41.2307 35.5103 41.1362 35.5531 41.0526 35.613C40.969 35.6728 40.898 35.7486 40.8437 35.8359L37.2187 41.6641L33.6406 23.7734C37.2793 23.4565 40.8672 22.7064 44.3281 21.5391L47.8906 39.3047L41.9219 35.5859Z" fill="#0D263C"/>
</svg>
