<svg width="50" height="50" viewBox="0 0 50 50" fill="none" xmlns="http://www.w3.org/2000/svg">
<g clip-path="url(#clip0_208_708)">
<path d="M15.625 15.625H3.125C2.26172 15.625 1.5625 14.9258 1.5625 14.0625V4.6875C1.5625 3.82422 2.26172 3.125 3.125 3.125H15.625C16.4883 3.125 17.1875 3.82422 17.1875 4.6875V6.25L20.3125 9.375L17.1875 12.5V14.0625C17.1875 14.9258 16.4883 15.625 15.625 15.625Z" fill="#EC6325"/>
<path d="M25.7812 14.0625C26.6442 14.0625 27.3438 13.3629 27.3438 12.5C27.3438 11.6371 26.6442 10.9375 25.7812 10.9375C24.9183 10.9375 24.2188 11.6371 24.2188 12.5C24.2188 13.3629 24.9183 14.0625 25.7812 14.0625Z" fill="#BAB8B9"/>
<path d="M18.75 21.875H25V25H18.75V21.875Z" fill="#8B8A8B"/>
<path d="M18.75 21.875H22.6562V25H18.75V21.875Z" fill="#BAB8B9"/>
<path d="M18.75 28.125H46.875V46.875H18.75V28.125Z" fill="#C7D5E1"/>
<path d="M18.75 28.125H44.5312V46.875H18.75V28.125Z" fill="#C7D5E1"/>
<path d="M17.1875 25H48.4375V28.125H17.1875V25Z" fill="#C7D5E1"/>
<path d="M17.1875 25H46.0938V28.125H17.1875V25Z" fill="#C7D5E1"/>
<path d="M12.5 48.4375H1.5625V46.0938C1.5625 43.0734 4.01094 40.625 7.03125 40.625C10.0516 40.625 12.5 43.0734 12.5 46.0938V48.4375Z" fill="#EC6325"/>
<path d="M5.85938 40.7539C3.40312 41.2906 1.5625 43.4758 1.5625 46.0937V48.4375H10.1562V46.0937C10.1562 43.4758 8.31563 41.2906 5.85938 40.7539Z" fill="#EC6325"/>
<path d="M23.4375 48.4375H12.5V46.0938C12.5 43.0734 14.9484 40.625 17.9688 40.625C20.9891 40.625 23.4375 43.0734 23.4375 46.0938V48.4375Z" fill="#EC6325"/>
<path d="M16.7969 40.7539C14.3406 41.2906 12.5 43.4758 12.5 46.0937V48.4375H21.0938V46.0937C21.0938 43.4758 19.2531 41.2906 16.7969 40.7539Z" fill="#EC6325"/>
<path d="M34.375 48.4375H23.4375V46.0938C23.4375 43.0734 25.8859 40.625 28.9062 40.625C31.9266 40.625 34.375 43.0734 34.375 46.0938V48.4375Z" fill="#EC6325"/>
<path d="M27.7344 40.7539C25.2781 41.2906 23.4375 43.4758 23.4375 46.0937V48.4375H32.0312V46.0937C32.0312 43.4758 30.1906 41.2906 27.7344 40.7539Z" fill="#EC6325"/>
<path d="M7.03125 40.625C8.75714 40.625 10.1562 39.2259 10.1562 37.5C10.1562 35.7741 8.75714 34.375 7.03125 34.375C5.30536 34.375 3.90625 35.7741 3.90625 37.5C3.90625 39.2259 5.30536 40.625 7.03125 40.625Z" fill="#EC6325"/>
<path d="M5.85938 40.393C6.93806 40.393 7.8125 39.0977 7.8125 37.5C7.8125 35.9023 6.93806 34.607 5.85938 34.607C4.78069 34.607 3.90625 35.9023 3.90625 37.5C3.90625 39.0977 4.78069 40.393 5.85938 40.393Z" fill="#EC6325"/>
<path d="M17.9688 40.625C19.6946 40.625 21.0938 39.2259 21.0938 37.5C21.0938 35.7741 19.6946 34.375 17.9688 34.375C16.2429 34.375 14.8438 35.7741 14.8438 37.5C14.8438 39.2259 16.2429 40.625 17.9688 40.625Z" fill="#EC6325"/>
<path d="M16.7969 40.393C17.8756 40.393 18.75 39.0977 18.75 37.5C18.75 35.9023 17.8756 34.607 16.7969 34.607C15.7182 34.607 14.8438 35.9023 14.8438 37.5C14.8438 39.0977 15.7182 40.393 16.7969 40.393Z" fill="#EC6325"/>
<path d="M28.9062 40.625C30.6321 40.625 32.0312 39.2259 32.0312 37.5C32.0312 35.7741 30.6321 34.375 28.9062 34.375C27.1804 34.375 25.7812 35.7741 25.7812 37.5C25.7812 39.2259 27.1804 40.625 28.9062 40.625Z" fill="#EC6325"/>
<path d="M27.7344 40.393C28.8131 40.393 29.6875 39.0977 29.6875 37.5C29.6875 35.9023 28.8131 34.607 27.7344 34.607C26.6557 34.607 25.7812 35.9023 25.7812 37.5C25.7812 39.0977 26.6557 40.393 27.7344 40.393Z" fill="#EC6325"/>
<path d="M39.8438 14.0625H41.5406C42.9555 14.0625 44.3125 14.6242 45.3125 15.625C46.3133 16.6258 46.875 17.982 46.875 19.3969V25H28.125V19.3969C28.125 17.982 28.6867 16.625 29.6875 15.625C30.6883 14.6242 32.0445 14.0625 33.4594 14.0625H35.1562L37.5 17.1875L39.8438 14.0625Z" fill="#C7D5E1"/>
<path d="M37.5 17.1875L39.8438 14.0625H42.1875L40.625 18.75L37.5 17.1875Z" fill="#EC6325"/>
<path d="M37.5 17.1875L35.1562 14.0625H32.8125L34.375 18.75L37.5 17.1875Z" fill="#EC6325"/>
<path d="M42.9688 7.03125C42.9688 10.0516 40.5203 12.5 37.5 12.5C34.4797 12.5 32.0312 10.0516 32.0312 7.03125C34.032 7.03125 35.9508 6.23672 37.3656 4.82187L37.5 4.6875L37.6344 4.82187C39.0492 6.23672 40.968 7.03125 42.9688 7.03125Z" fill="#F9FCFF"/>
<path d="M37.5 12.5C36.6602 12.5 35.8672 12.3047 35.1562 11.9664V14.0625L37.5 17.1875L39.8438 14.0625V11.9664C39.1328 12.3047 38.3398 12.5 37.5 12.5Z" fill="#F9FCFF"/>
<path d="M37.5 4.6875L37.6344 4.82187C39.0492 6.23672 40.968 7.03125 42.9688 7.03125C42.9688 4.01094 40.5203 1.5625 37.5 1.5625C34.4797 1.5625 32.0312 4.01094 32.0312 7.03125C34.032 7.03125 35.9508 6.23672 37.3656 4.82187L37.5 4.6875Z" fill="#0D263C"/>
<path d="M48.4375 28.9062H17.1875C16.7563 28.9062 16.4062 28.557 16.4062 28.125V25C16.4062 24.568 16.7563 24.2188 17.1875 24.2188H48.4375C48.8688 24.2188 49.2188 24.568 49.2188 25V28.125C49.2188 28.557 48.8688 28.9062 48.4375 28.9062ZM17.9688 27.3438H47.6562V25.7812H17.9688V27.3438Z" fill="#0D263C"/>
<path d="M17.9688 28.125H19.5312V34.4773H17.9688V28.125Z" fill="#0D263C"/>
<path d="M46.875 47.6562H34.375V46.0938H46.0938V28.125H47.6562V46.875C47.6562 47.307 47.3062 47.6562 46.875 47.6562Z" fill="#0D263C"/>
<path d="M25.7812 25H24.2188V22.6562H19.5312V25H17.9688V21.875C17.9688 21.443 18.3188 21.0938 18.75 21.0938H25C25.4313 21.0938 25.7812 21.443 25.7812 21.875V25Z" fill="#0D263C"/>
<path d="M25.7812 14.8438C24.4891 14.8438 23.4375 13.7922 23.4375 12.5C23.4375 11.2078 24.4891 10.1562 25.7812 10.1562C27.0734 10.1562 28.125 11.2078 28.125 12.5C28.125 13.7922 27.0734 14.8438 25.7812 14.8438ZM25.7812 11.7188C25.3508 11.7188 25 12.0688 25 12.5C25 12.9313 25.3508 13.2812 25.7812 13.2812C26.2117 13.2812 26.5625 12.9313 26.5625 12.5C26.5625 12.0688 26.2117 11.7188 25.7812 11.7188Z" fill="#0D263C"/>
<path d="M22.6562 21.875H21.0938V20.8258C21.0938 17.7672 22.2844 14.8914 24.4477 12.7289L25.5523 13.8336C23.6844 15.7016 22.6562 18.1844 22.6562 20.8258V21.875Z" fill="#0D263C"/>
<path d="M37.5 17.9688C37.2539 17.9688 37.0227 17.8531 36.875 17.6563L34.5313 14.5313C34.4297 14.3961 34.375 14.232 34.375 14.0625V11.7188H35.9375V13.8023L37.5 15.8852L39.0625 13.8023V11.7188H40.625V14.0625C40.625 14.232 40.5703 14.3961 40.4687 14.5313L38.125 17.6563C37.9773 17.8531 37.7461 17.9688 37.5 17.9688Z" fill="#0D263C"/>
<path d="M47.6562 25H46.0938V19.3969C46.0938 18.1805 45.6203 17.0367 44.7602 16.1773C43.9 15.3172 42.7563 14.8438 41.5398 14.8438H39.8438V13.2812H41.5398C43.1734 13.2812 44.7094 13.9172 45.8648 15.0727C47.0203 16.2273 47.6562 17.7625 47.6562 19.3969V25Z" fill="#0D263C"/>
<path d="M28.9062 25H27.3438V19.3969C27.3438 17.7625 27.9797 16.2266 29.1352 15.0727C30.2906 13.9172 31.8266 13.2812 33.4602 13.2812H35.1562V14.8438H33.4602C32.2437 14.8438 31.1 15.3172 30.2398 16.1773C29.3797 17.0375 28.9062 18.1805 28.9062 19.3969V25Z" fill="#0D263C"/>
<path d="M34.375 19.5312C34.2734 19.5312 34.1718 19.5117 34.0757 19.4719C33.8664 19.3851 33.7054 19.2117 33.6335 18.9976L32.071 14.3101L33.5531 13.8156L34.8304 17.6484L37.15 16.4891L37.8492 17.8867L34.7242 19.4492C34.6148 19.5039 34.4945 19.5312 34.375 19.5312Z" fill="#0D263C"/>
<path d="M36.7188 17.1875H38.2812V25H36.7188V17.1875Z" fill="#0D263C"/>
<path d="M40.625 19.5312C40.5054 19.5312 40.3851 19.5039 40.2758 19.4492L37.1508 17.8867L37.85 16.4891L40.1695 17.6484L41.4468 13.8156L42.9289 14.3101L41.3664 18.9976C41.2945 19.2117 41.1336 19.3851 40.9242 19.4719C40.8281 19.5117 40.7265 19.5312 40.625 19.5312Z" fill="#0D263C"/>
<path d="M37.5 13.2812C34.0539 13.2812 31.25 10.4773 31.25 7.03125C31.25 6.59922 31.6 6.25 32.0312 6.25C33.8375 6.25 35.5359 5.54687 36.8141 4.26953L36.9469 4.13594C37.2398 3.84141 37.7602 3.84141 38.0531 4.13594L38.1867 4.27031C39.4641 5.54687 41.1625 6.25 42.9688 6.25C43.4 6.25 43.75 6.59922 43.75 7.03125C43.75 10.4773 40.9461 13.2812 37.5 13.2812ZM32.8711 7.77109C33.2266 10.0055 35.1672 11.7187 37.5 11.7187C39.8328 11.7187 41.7734 10.0055 42.1289 7.77109C40.4109 7.60078 38.8055 6.90547 37.5 5.76562C36.1945 6.90625 34.5883 7.60078 32.8711 7.77109Z" fill="#0D263C"/>
<path d="M30.4688 21.0938H32.0312V25H30.4688V21.0938Z" fill="#0D263C"/>
<path d="M42.9688 21.0938H44.5312V25H42.9688V21.0938Z" fill="#0D263C"/>
<path d="M43.75 7.03125H42.1875C42.1875 4.44609 40.0852 2.34375 37.5 2.34375C34.9148 2.34375 32.8125 4.44609 32.8125 7.03125H31.25C31.25 3.58516 34.0539 0.78125 37.5 0.78125C40.9461 0.78125 43.75 3.58516 43.75 7.03125Z" fill="#0D263C"/>
<path d="M17.9688 41.4062C15.8148 41.4062 14.0625 39.6539 14.0625 37.5C14.0625 35.3461 15.8148 33.5938 17.9688 33.5938C20.1227 33.5938 21.875 35.3461 21.875 37.5C21.875 39.6539 20.1227 41.4062 17.9688 41.4062ZM17.9688 35.1562C16.6766 35.1562 15.625 36.2078 15.625 37.5C15.625 38.7922 16.6766 39.8438 17.9688 39.8438C19.2609 39.8438 20.3125 38.7922 20.3125 37.5C20.3125 36.2078 19.2609 35.1562 17.9688 35.1562Z" fill="#0D263C"/>
<path d="M23.4375 49.2188H12.5C12.0688 49.2188 11.7188 48.8695 11.7188 48.4375V46.0938C11.7188 42.6477 14.5227 39.8438 17.9688 39.8438C21.4148 39.8438 24.2188 42.6477 24.2188 46.0938V48.4375C24.2188 48.8695 23.8687 49.2188 23.4375 49.2188ZM13.2812 47.6562H22.6562V46.0938C22.6562 43.5086 20.5539 41.4062 17.9688 41.4062C15.3836 41.4062 13.2812 43.5086 13.2812 46.0938V47.6562Z" fill="#0D263C"/>
<path d="M28.9062 41.4062C26.7523 41.4062 25 39.6539 25 37.5C25 35.3461 26.7523 33.5938 28.9062 33.5938C31.0602 33.5938 32.8125 35.3461 32.8125 37.5C32.8125 39.6539 31.0602 41.4062 28.9062 41.4062ZM28.9062 35.1562C27.6141 35.1562 26.5625 36.2078 26.5625 37.5C26.5625 38.7922 27.6141 39.8438 28.9062 39.8438C30.1984 39.8438 31.25 38.7922 31.25 37.5C31.25 36.2078 30.1984 35.1562 28.9062 35.1562Z" fill="#0D263C"/>
<path d="M34.375 49.2188H23.4375C23.0063 49.2188 22.6562 48.8695 22.6562 48.4375V46.0938C22.6562 42.6477 25.4602 39.8438 28.9062 39.8438C32.3523 39.8438 35.1562 42.6477 35.1562 46.0938V48.4375C35.1562 48.8695 34.8062 49.2188 34.375 49.2188ZM24.2188 47.6562H33.5938V46.0938C33.5938 43.5086 31.4914 41.4062 28.9062 41.4062C26.3211 41.4062 24.2188 43.5086 24.2188 46.0938V47.6562Z" fill="#0D263C"/>
<path d="M7.03125 41.4062C4.87734 41.4062 3.125 39.6539 3.125 37.5C3.125 35.3461 4.87734 33.5938 7.03125 33.5938C9.18516 33.5938 10.9375 35.3461 10.9375 37.5C10.9375 39.6539 9.18516 41.4062 7.03125 41.4062ZM7.03125 35.1562C5.73906 35.1562 4.6875 36.2078 4.6875 37.5C4.6875 38.7922 5.73906 39.8438 7.03125 39.8438C8.32344 39.8438 9.375 38.7922 9.375 37.5C9.375 36.2078 8.32344 35.1562 7.03125 35.1562Z" fill="#0D263C"/>
<path d="M12.5 49.2188H1.5625C1.13125 49.2188 0.78125 48.8695 0.78125 48.4375V46.0938C0.78125 42.6477 3.58516 39.8438 7.03125 39.8438C10.4773 39.8438 13.2812 42.6477 13.2812 46.0938V48.4375C13.2812 48.8695 12.9312 49.2188 12.5 49.2188ZM2.34375 47.6562H11.7188V46.0938C11.7188 43.5086 9.61641 41.4062 7.03125 41.4062C4.44609 41.4062 2.34375 43.5086 2.34375 46.0938V47.6562Z" fill="#0D263C"/>
<path d="M15.625 16.4062H3.125C1.83281 16.4062 0.78125 15.3547 0.78125 14.0625V4.6875C0.78125 3.39531 1.83281 2.34375 3.125 2.34375H15.625C16.9172 2.34375 17.9688 3.39531 17.9688 4.6875V5.92656L20.8648 8.82266C21.1703 9.12813 21.1703 9.62187 20.8648 9.92734L17.9688 12.8234V14.0625C17.9688 15.3547 16.9172 16.4062 15.625 16.4062ZM3.125 3.90625C2.69453 3.90625 2.34375 4.25625 2.34375 4.6875V14.0625C2.34375 14.4937 2.69453 14.8438 3.125 14.8438H15.625C16.0555 14.8438 16.4062 14.4937 16.4062 14.0625V12.5C16.4062 12.2922 16.4883 12.0938 16.6352 11.9477L19.2078 9.375L16.6352 6.80234C16.4883 6.65625 16.4062 6.45781 16.4062 6.25V4.6875C16.4062 4.25625 16.0555 3.90625 15.625 3.90625H3.125Z" fill="#0D263C"/>
<path d="M3.90625 5.46875H14.8438V7.03125H3.90625V5.46875Z" fill="#0D263C"/>
<path d="M3.90625 11.7188H14.8438V13.2812H3.90625V11.7188Z" fill="#0D263C"/>
<path d="M5.46875 8.59375H13.2812V10.1562H5.46875V8.59375Z" fill="#0D263C"/>
</g>
<defs>
<clipPath id="clip0_208_708">
<rect width="50" height="50" fill="white"/>
</clipPath>
</defs>
</svg>
